<?xml version="1.0" encoding="utf-8"?>
<!-- Generator: Adobe Illustrator 27.5.0, SVG Export Plug-In . SVG Version: 6.00 Build 0)  -->
<svg version="1.1" xmlns="http://www.w3.org/2000/svg" xmlns:xlink="http://www.w3.org/1999/xlink" x="0px" y="0px"
	 viewBox="0 0 500 500" style="enable-background:new 0 0 500 500;" xml:space="preserve">
<g id="Floor">
	<path id="Floor_18_" style="fill:#F5F5F5;" d="M105.706,414.449c76.923,36.651,201.639,36.652,278.561,0.001
		c76.923-36.652,76.923-96.076,0-132.727c-76.923-36.652-201.639-36.652-278.562-0.001
		C28.783,318.374,28.783,377.798,105.706,414.449z"/>
</g>
<g id="Shadows">
	<path id="Shadow_20_" style="fill:#E0E0E0;" d="M383.556,349.928L338.859,324.1c-1.293-0.747-3.44-0.845-4.795-0.219
		l-50.003,23.095c-1.355,0.626-1.406,1.739-0.113,2.486l55.72,32.17c1.293,0.747,3.323,0.643,4.533-0.231l39.504-28.536
		C384.915,351.99,384.849,350.676,383.556,349.928z"/>
	<path id="Shadow_21_" style="fill:#E0E0E0;" d="M84.745,367.442l44.69-25.824c1.293-0.747,3.439-0.845,4.795-0.219l49.995,23.092
		c1.355,0.626,1.406,1.739,0.113,2.485l-55.712,32.165c-1.293,0.746-3.322,0.643-4.532-0.231l-39.498-28.532
		C83.386,369.503,83.453,368.189,84.745,367.442z"/>
</g>
<g id="Plants">
	<g id="Plants_1_">
		<g id="XMLID_109_">
			<g id="XMLID_112_">
				<path id="XMLID_114_" style="fill:#27DEBF;" d="M377.049,314.269c0,0,0.666-15.547,7.495-28.058
					c6.828-12.511,16.844-20.725,26.625-22.197c9.781-1.471,18.363,7.018,8.277,13.975c-10.086,6.956-28.338,14.616-35.304,38.466
					L377.049,314.269z"/>
				<path id="XMLID_113_" style="opacity:0.2;" d="M377.049,314.269c0,0,0.666-15.547,7.495-28.058
					c6.828-12.511,16.844-20.725,26.625-22.197c9.781-1.471,18.363,7.018,8.277,13.975c-10.086,6.956-28.338,14.616-35.304,38.466
					L377.049,314.269z"/>
			</g>
			<g id="XMLID_110_">
				<path id="XMLID_111_" style="fill:#FFFFFF;" d="M379.651,310.061c-0.036-0.004-0.071-0.011-0.106-0.023
					c-0.277-0.09-0.428-0.387-0.337-0.664c8.578-26.295,27.586-38.362,36.439-41.069c0.277-0.087,0.572,0.072,0.658,0.35
					c0.085,0.279-0.071,0.573-0.35,0.658c-8.672,2.651-27.303,14.506-35.746,40.388C380.13,309.942,379.893,310.088,379.651,310.061
					z"/>
			</g>
		</g>
		<g id="XMLID_99_">
			<g id="XMLID_104_">
				<g id="XMLID_107_">
					<path id="XMLID_108_" style="fill:#27DEBF;" d="M432.472,306.636c-0.796,2.201-3.048,3.477-5.155,4.503
						c-2.095,1.018-4.392,2.129-5.421,4.23c-2.073,4.243,2.206,9.701-0.048,13.849c-0.946,1.739-2.862,2.755-4.781,3.241
						c-1.594,0.416-3.239,0.53-4.868,0.783c-0.789,0.039-1.573,0.037-2.341-0.017c-2.271-0.168-4.716-0.101-6.695,1.194
						c-3.111,2.049-3.818,6.211-5.564,9.504c-2.093,3.943-6.09,6.71-10.431,7.615c-1.443,0.295-4.133,0.748-5.674,0.025
						c-0.121-0.056-0.221-0.109-0.32-0.173c-0.01-0.001-0.02-0.013-0.029-0.025c-0.22-0.215-0.497-0.49-0.618-0.641
						c-0.029-0.025-0.047-0.058-0.064-0.092c-0.723-2.073,0.059-4.339-0.057-6.526c-0.006-0.138-0.013-0.266-0.031-0.396
						c-0.269-2.532-0.519-5.05-0.756-7.579c-0.447-4.65-0.829-9.315-1.125-13.98c-0.182-3.031-0.78-6.32,0.3-9.263
						c1.198-3.237,4.721-3.555,5.838-6.728c0.448-1.264,0.639-2.6,1.068-3.877c1.286-3.747,4.84-6.627,8.783-7.099
						c6.137-0.748,12.016,3.85,18.136,2.963c1.584-0.237,3.103-0.831,4.653-1.231c4.924-1.286,10.789-0.272,13.893,3.752
						C432.462,302.352,433.193,304.638,432.472,306.636z"/>
				</g>
				<g id="XMLID_105_" style="opacity:0.07;">
					<path id="XMLID_106_" style="fill:#263238;" d="M432.472,306.636c-0.796,2.201-3.048,3.477-5.155,4.503
						c-2.095,1.018-4.392,2.129-5.421,4.23c-2.073,4.243,2.206,9.701-0.048,13.849c-0.946,1.739-2.862,2.755-4.781,3.241
						c-1.572,0.408-3.225,0.69-4.868,0.783c-0.789,0.039-1.573,0.037-2.341-0.017c-2.271-0.168-4.716-0.101-6.695,1.194
						c-3.111,2.049-3.818,6.211-5.564,9.504c-2.093,3.943-6.09,6.71-10.431,7.615c-1.443,0.295-4.133,0.748-5.674,0.025
						c-0.121-0.056-0.221-0.109-0.32-0.173c-0.01-0.001-0.02-0.013-0.029-0.025c-0.09-0.052-0.178-0.115-0.255-0.187
						c-0.144-0.133-0.265-0.284-0.363-0.454c-0.029-0.025-0.047-0.058-0.064-0.092c-0.957-1.686-0.025-4.625-0.057-6.526
						c-0.006-0.138-0.013-0.266-0.031-0.396c-0.269-2.532-0.519-5.05-0.756-7.579c-0.447-4.65-0.829-9.315-1.125-13.98
						c-0.182-3.031-0.78-6.32,0.3-9.263c1.198-3.237,4.721-3.555,5.838-6.728c0.448-1.264,0.639-2.6,1.068-3.877
						c1.286-3.747,4.84-6.627,8.783-7.099c6.137-0.748,12.016,3.85,18.136,2.963c1.584-0.237,3.103-0.831,4.653-1.231
						c4.924-1.286,10.789-0.272,13.893,3.752C432.462,302.352,433.193,304.638,432.472,306.636z"/>
				</g>
			</g>
			<g id="XMLID_102_">
				<path id="XMLID_103_" style="fill:#FFFFFF;" d="M379.276,340.966c-0.014-0.002-0.029-0.004-0.043-0.007
					c-0.285-0.055-0.472-0.331-0.417-0.617c6.26-32.53,39.577-39.516,47.488-39.503c0.286,0.003,0.525,0.237,0.526,0.527
					c0,0.291-0.237,0.526-0.527,0.526c-7.739-0.013-40.328,6.821-46.453,38.649C379.798,340.814,379.546,340.996,379.276,340.966z"
					/>
			</g>
			<g id="XMLID_100_">
				<path id="XMLID_101_" style="fill:#FFFFFF;" d="M415.515,322.152c-0.103-0.012-0.204-0.054-0.288-0.127
					c-0.091-0.079-9.267-7.934-23.35-4.835c-0.284,0.058-0.566-0.117-0.628-0.401c-0.063-0.284,0.118-0.566,0.401-0.628
					c14.627-3.215,24.176,4.99,24.271,5.073c0.219,0.192,0.24,0.525,0.049,0.743C415.852,322.109,415.681,322.17,415.515,322.152z"
					/>
			</g>
		</g>
	</g>
</g>
<g id="Table_1_">
	<g id="Table">
		<g id="Table_2_">
			<path id="XMLID_301_" style="fill:#37474F;" d="M159.398,337.39c0,0.582,0.408,1.289,0.912,1.58l45.25,26.125
				c0.504,0.291,1.321,0.291,1.825,0l130.838-75.539c0.504-0.291,0.912-0.999,0.912-1.58l-0.001-132.367l-47.074-27.178
				l-132.663,76.592V337.39z"/>
			<path id="XMLID_304_" style="fill:#263238;" d="M159.398,337.39c0,0.582,0.409,1.289,0.913,1.58l45.25,26.125
				c0.252,0.145,0.582,0.218,0.912,0.218V223.382l-43.422-20.469l-3.652,2.109V337.39z"/>
			<path id="XMLID_296_" style="fill:#263238;" d="M205.104,241.294l-52.896-30.539c-0.756-0.436-1.369-1.498-1.369-2.37v-1.781
				c0-0.873,0.613-1.934,1.369-2.37l138.484-79.954c0.756-0.436,1.981-0.436,2.737,0l52.896,30.54
				c0.756,0.436,1.368,1.498,1.368,2.37l0,1.781c0,0.873-0.613,1.934-1.369,2.37l-138.485,79.954
				C207.085,241.73,205.86,241.73,205.104,241.294z"/>
			<g id="XMLID_263_">
				<path style="fill:#455A64;" d="M346.326,156.398l-138.485,79.954c-0.756,0.436-1.981,0.436-2.737,0l-52.896-30.54
					c-0.756-0.436-0.756-1.144,0-1.58l138.484-79.954c0.756-0.436,1.981-0.436,2.737,0l52.896,30.54
					C347.082,155.255,347.082,155.962,346.326,156.398z"/>
			</g>
			<path id="XMLID_311_" style="fill:#37474F;" d="M206.475,236.678v4.941c-0.495,0-0.99-0.105-1.37-0.327l-52.897-30.542
				c-0.758-0.432-1.369-1.496-1.369-2.37v-1.78c0-0.769,0.474-1.686,1.117-2.191c-0.495,0.432-0.411,1.022,0.253,1.401
				l52.897,30.542C205.485,236.563,205.98,236.678,206.475,236.678z"/>
		</g>
		<g id="Eggs">
			<g id="XMLID_361_">
				<path id="XMLID_297_" style="fill:#F0F0F0;" d="M224.933,179.147c-8.713,5.03-8.714,13.186-0.001,18.217
					c8.713,5.03,22.839,5.031,31.553,0c8.713-5.03,8.714-13.186,0.001-18.217C247.773,174.117,233.646,174.117,224.933,179.147z"/>
				<path id="XMLID_302_" style="fill:#E0E0E0;" d="M229.867,181.996c-5.988,3.457-5.988,9.062-0.001,12.519
					c5.988,3.457,15.696,3.457,21.684,0c5.988-3.457,5.988-9.062,0.001-12.519C245.563,178.539,235.855,178.539,229.867,181.996z"/>
				<path id="XMLID_303_" style="fill:#EBEBEB;" d="M230.605,182.422c-5.58,3.222-5.581,8.445-0.001,11.667
					c5.58,3.222,14.628,3.222,20.208,0c5.58-3.221,5.581-8.445,0.001-11.667C245.233,179.2,236.185,179.2,230.605,182.422z"/>
			</g>
			<g id="XMLID_360_">
				<g id="XMLID_357_">
					<path id="XMLID_307_" style="fill:#FAFAFA;" d="M239.529,181.114c-1.546-0.304-3.131-0.298-4.568,0.186
						c-1.352,0.456-2.564,1.354-3.332,2.557c-0.355,0.556-0.618,1.175-1.053,1.67c-0.753,0.858-1.865,1.145-2.833,1.664
						c-0.975,0.523-1.852,1.212-2.428,2.174c-0.142,0.237-0.269,0.488-0.317,0.759c-0.31,1.743,2.197,3.351,3.597,3.691
						c0.888,0.216,1.797,0.248,2.688,0.4c0.972,0.166,1.979-0.008,2.937,0.265c0.717,0.204,1.24,0.748,1.864,1.136
						c0.722,0.45,1.497,0.82,2.314,1.063c1.32,0.392,2.76,0.441,4.065,0.001c2.046-0.69,3.784-1.797,6.027-1.822
						c3.101-0.034,6.393,0.045,8.641-2.491c1.439-1.622,1.622-3.957-0.321-5.231c-0.825-0.541-1.8-0.797-2.761-1.021
						c-2.518-0.587-5.1-1.021-7.497-2.025C244.172,183.093,242.12,181.623,239.529,181.114z"/>
					<path id="XMLID_308_" style="fill:#27DEBF;" d="M241.566,184.352c-0.72-1.446-2.224-2.439-3.958-2.439
						c-1.648,0-3.08,0.892-3.836,2.216c-0.043,0.065-0.079,0.122-0.101,0.18c-0.022,0.029-0.036,0.057-0.05,0.086
						c-0.381,0.799-0.029,1.691,1.065,2.324c1.612,0.928,4.231,0.928,5.843,0C241.638,186.079,241.983,185.158,241.566,184.352z"/>
					<path id="XMLID_309_" style="fill:#27DEBF;" d="M252.551,188.386c-0.72-1.446-2.224-2.439-3.958-2.439
						c-1.648,0-3.08,0.892-3.836,2.216c-0.043,0.065-0.079,0.122-0.101,0.18c-0.022,0.029-0.036,0.058-0.05,0.086
						c-0.381,0.799-0.029,1.691,1.065,2.324c1.612,0.928,4.231,0.928,5.843,0C252.623,190.113,252.969,189.192,252.551,188.386z"/>
				</g>
				<g id="XMLID_306_">
					<defs>
						<path id="XMLID_896_" d="M239.324,190.919c-0.847,0.036-1.741,0.254-2.513-0.097c-1.036-0.47-1.408-1.746-2.228-2.535
							c-0.605-0.582-1.473-0.881-2.308-0.794c-0.557,0.058-1.111,0.277-1.663,0.18c-1.137-0.201-1.628-1.559-2.566-2.232
							c-0.889-0.638-2.078-0.596-3.17-0.527l-2.798,2.351c1.092-0.069,2.282-0.111,3.17,0.527c0.938,0.673,1.429,2.031,2.566,2.232
							c0.552,0.098,1.105-0.122,1.663-0.18c0.835-0.087,1.703,0.212,2.308,0.794c0.82,0.789,1.192,2.065,2.228,2.535
							c0.772,0.351,1.666,0.133,2.513,0.097c1.833-0.079,3.68,0.79,4.789,2.251l2.798-2.351
							C243.004,191.709,241.156,190.84,239.324,190.919z"/>
					</defs>
					<use xlink:href="#XMLID_896_"  style="overflow:visible;fill:#27DEBF;"/>
					<clipPath id="XMLID_00000048483807846153721110000014939009706599409562_">
						<use xlink:href="#XMLID_896_"  style="overflow:visible;"/>
					</clipPath>
					
						<path id="XMLID_310_" style="clip-path:url(#XMLID_00000048483807846153721110000014939009706599409562_);fill:none;stroke:#FAFAFA;stroke-width:0.2634;stroke-miterlimit:10;" d="
						M223.59,185.509c0,0,2.981-0.146,3.803,0.648c0.753,0.728,1.3,1.904,2.408,2.099c1.108,0.194,3.285-0.608,4.202,0.5
						c0.917,1.108,1.529,2.56,2.981,2.904c1.452,0.344,3.363-0.382,4.93,0.65c1.567,1.032,2.199,2.062,2.199,2.062"/>
					
						<path id="XMLID_326_" style="clip-path:url(#XMLID_00000048483807846153721110000014939009706599409562_);fill:none;stroke:#FAFAFA;stroke-width:0.2634;stroke-miterlimit:10;" d="
						M222.189,186.32c0,0,2.726-0.284,3.815,0.5c0.823,0.592,1.163,2.163,2.271,2.358c1.108,0.194,3.229-0.433,4.146,0.675
						c0.917,1.108,1.601,2.231,3.054,2.575c1.452,0.344,3.363-0.382,4.93,0.65s2.199,2.062,2.199,2.062"/>
				</g>
			</g>
			<path id="XMLID_902_" style="fill:#27DEBF;" d="M251.389,171.734l8.094,4.673c0.274,0.158,0.662,0.19,0.867,0.072l0,0
				c0.205-0.118,0.594-0.087,0.867,0.072l11.239,6.489c0.474,0.274,1.147,0.329,1.503,0.124l0,0c0.356-0.206,0.26-0.594-0.215-0.868
				l-23.033-13.298C249.59,169.645,249.893,170.87,251.389,171.734z"/>
			<g id="XMLID_898_">
				<path id="XMLID_899_" style="fill:#27DEBF;" d="M213.21,199.493l1.289-0.744l16.241,9.377c0.474,0.274,0.571,0.663,0.215,0.868
					l0,0c-0.356,0.205-1.029,0.15-1.503-0.124L213.21,199.493z"/>
				<path id="XMLID_900_" style="fill:#27DEBF;" d="M208.431,194.415c-0.126,0.072-0.092,0.21,0.076,0.306l4.12,2.379
					c0.167,0.097,0.201,0.234,0.076,0.306l0,0c-0.126,0.073-0.363,0.053-0.531-0.044l-4.12-2.379
					c-0.167-0.097-0.405-0.116-0.531-0.044c-0.126,0.073-0.092,0.21,0.076,0.306l4.12,2.379c0.168,0.097,0.201,0.234,0.076,0.306
					l0,0c-0.126,0.072-0.363,0.053-0.531-0.044l-4.12-2.379c-0.167-0.097-0.405-0.116-0.531-0.044s-0.092,0.21,0.076,0.306
					l4.12,2.379c0.167,0.097,0.201,0.234,0.076,0.306l0,0c-0.126,0.073-0.363,0.053-0.531-0.044l-4.12-2.379
					c-0.167-0.097-0.405-0.116-0.531-0.044c-0.126,0.072-0.092,0.21,0.076,0.306l4.423,2.554l0.491,0.283l0.697,0.402
					c0.483,0.279,1.167,0.335,1.529,0.126l1.873-1.081c0.362-0.209,0.264-0.604-0.219-0.883l-0.697-0.402l-0.491-0.283l-4.423-2.554
					C208.794,194.362,208.557,194.342,208.431,194.415z"/>
			</g>
		</g>
	</g>
</g>
<g id="Chair">
	<g id="Chair_2_">
		<g id="XMLID_923_">
			<path id="XMLID_926_" style="fill:#27DEBF;" d="M95.803,245.714v124.459c0,0.567-0.398,1.255-0.888,1.539l-2.391,1.38
				c-0.491,0.283-1.286,0.283-1.777,0l-2.39-1.38c-0.491-0.283-0.888-0.972-0.888-1.539V245.713c0-0.567,0.459-1.026,1.026-1.026
				l6.283,0C95.344,244.688,95.803,245.147,95.803,245.714z"/>
			<path id="XMLID_1_" style="opacity:0.1;" d="M95.803,245.714v124.459c0,0.567-0.398,1.255-0.888,1.539l-2.391,1.38
				c-0.491,0.283-1.286,0.283-1.777,0l-2.39-1.38c-0.491-0.283-0.888-0.972-0.888-1.539V245.713c0-0.567,0.459-1.026,1.026-1.026
				l6.283,0C95.344,244.688,95.803,245.147,95.803,245.714z"/>
			<path id="XMLID_925_" style="fill:#27DEBF;" d="M88.494,244.688h2.116c0.566,0,1.026,0.459,1.026,1.026l-0.001,126.865
				c0,0.567-0.398,0.796-0.888,0.513l-2.39-1.38c-0.491-0.283-0.888-0.972-0.888-1.539V245.713
				C87.468,245.147,87.928,244.688,88.494,244.688z"/>
		</g>
		<g id="XMLID_919_">
			<path id="XMLID_922_" style="fill:#27DEBF;" d="M132.017,266.44v124.459c0,0.567-0.398,1.255-0.889,1.539l-2.391,1.38
				c-0.491,0.283-1.286,0.283-1.777,0l-2.39-1.38c-0.491-0.283-0.888-0.972-0.888-1.539V266.44c0-0.566,0.459-1.026,1.026-1.026
				l6.283,0C131.557,265.414,132.017,265.873,132.017,266.44z"/>
			<path id="XMLID_34_" style="opacity:0.1;" d="M132.017,266.44v124.459c0,0.567-0.398,1.255-0.889,1.539l-2.391,1.38
				c-0.491,0.283-1.286,0.283-1.777,0l-2.39-1.38c-0.491-0.283-0.888-0.972-0.888-1.539V266.44c0-0.566,0.459-1.026,1.026-1.026
				l6.283,0C131.557,265.414,132.017,265.873,132.017,266.44z"/>
			<path id="XMLID_921_" style="fill:#27DEBF;" d="M124.708,265.414h2.116c0.566,0,1.026,0.459,1.026,1.026l-0.001,126.865
				c0,0.566-0.398,0.796-0.888,0.513l-2.39-1.38c-0.491-0.283-0.888-0.972-0.888-1.539V266.44
				C123.682,265.873,124.141,265.414,124.708,265.414z"/>
		</g>
		<g id="XMLID_906_">
			<path id="XMLID_917_" style="fill:#27DEBF;" d="M179.097,246.088v117.608c0,0.597-0.398,1.286-0.889,1.569l-2.391,1.38
				c-0.491,0.283-1.286,0.283-1.777,0l-2.39-1.38c-0.491-0.283-0.888-0.972-0.888-1.539V246.118c0-0.566,0.459-1.026,1.026-1.026
				l6.283,0C178.638,245.093,179.097,245.552,179.097,246.088z"/>
			<path id="XMLID_35_" style="opacity:0.1;" d="M179.097,246.088v117.608c0,0.597-0.398,1.286-0.889,1.569l-2.391,1.38
				c-0.491,0.283-1.286,0.283-1.777,0l-2.39-1.38c-0.491-0.283-0.888-0.972-0.888-1.539V246.118c0-0.566,0.459-1.026,1.026-1.026
				l6.283,0C178.638,245.093,179.097,245.552,179.097,246.088z"/>
			<path id="XMLID_915_" style="fill:#27DEBF;" d="M171.788,245.092h2.116c0.566,0,1.026,0.459,1.026,1.026l-0.001,120.014
				c0,0.566-0.398,0.796-0.888,0.513l-2.39-1.38c-0.491-0.283-0.888-0.972-0.888-1.539V246.118
				C170.762,245.552,171.222,245.092,171.788,245.092z"/>
			<g id="XMLID_907_">
				<polygon id="XMLID_914_" style="fill:#27DEBF;" points="174.929,337.516 170.762,335.102 132.017,357.35 132.017,362.292 				
					"/>
				<polygon id="XMLID_38_" style="opacity:0.2;" points="174.929,337.516 170.762,335.102 132.017,357.35 132.017,362.292 				"/>
				<polygon id="XMLID_908_" style="fill:#27DEBF;" points="174.929,337.516 174.929,342.449 132.017,367.233 132.017,362.292 				
					"/>
				<polygon id="XMLID_36_" style="opacity:0.1;" points="174.929,337.516 174.929,342.449 132.017,367.233 132.017,362.292 				"/>
			</g>
			<g id="XMLID_6_">
				<polygon id="XMLID_8_" style="fill:#27DEBF;" points="91.636,343.764 95.803,341.35 123.681,357.35 123.681,362.292 				"/>
				<polygon id="XMLID_37_" style="opacity:0.15;" points="91.636,343.764 95.803,341.35 123.681,357.35 123.681,362.292 				"/>
				<polygon id="XMLID_7_" style="fill:#27DEBF;" points="91.636,343.764 91.636,348.697 123.681,367.233 123.681,362.292 				"/>
			</g>
		</g>
		<path id="XMLID_904_" style="fill:#455A64;" d="M116.724,183.948c-0.02,0.284,0.01,0.592,0.093,0.915
			c2.944,10.973,4.423,26.489,4.685,41.147l7.331-3.563c-0.446-14.153-1.969-28.753-4.781-39.506
			c-0.608-2.283-2.727-2.931-4.861-1.89C117.868,181.685,116.816,182.666,116.724,183.948z"/>
		<path id="XMLID_897_" style="fill:#27DEBF;" d="M120.877,187.493c0,0,4.037,8.825,3.689,18.763l-35.351,20.465l-6.854-16.991
			L120.877,187.493z"/>
		<polygon id="XMLID_10_" style="fill:#27DEBF;" points="79.067,209.118 117.582,186.881 120.877,187.493 82.361,209.73 		"/>
		<polygon id="XMLID_9_" style="opacity:0.4;fill:#FFFFFF;" points="79.067,209.118 117.582,186.881 120.877,187.493 82.361,209.73 
					"/>
		<path id="XMLID_372_" style="fill:#455A64;" d="M77.007,207.508c4.814,11.59,8.435,25.012,10.461,39.089l6.836-4.33
			c-2.158-13.615-5.643-26.275-10.374-37.653c-0.862-2.085-3.35-2.955-5.311-1.85l-0.011,0.01
			C76.944,203.715,76.268,205.741,77.007,207.508z"/>
		<path id="XMLID_5_" style="fill:#455A64;" d="M87.468,251.92v0.92c0,1.511,0.993,3.453,2.217,4.338l35.946,26.481
			c1.224,0.885,3.278,0.99,4.586,0.235l47.811-27.583c1.308-0.755,2.369-2.592,2.369-4.103v-0.944c0-1.511-1.112-3.249-2.484-3.883
			l-46.568-20.953c-1.372-0.633-3.544-0.534-4.852,0.222l-36.657,21.167C88.529,248.572,87.468,250.409,87.468,251.92z"/>
		<path style="fill:#263238;" d="M89.913,247.772l-0.31,0.044C88.295,248.572,87,250.409,87,251.92v0.92
			c0,1.511,1.227,3.453,2.451,4.338l36.063,26.481c0.598,0.433,1.524,0.676,2.335,0.726c0,0,0.132-9.864,0.151-10.091
			L89.913,247.772z"/>
		<path style="fill:#27DEBF;" d="M180,244.79v0.95c0,1.51-0.86,3.34-2.17,4.1l-47.71,27.58c-0.63,0.36-1.37,0.53-2.17,0.51
			c-0.86-0.03-1.705-0.28-2.345-0.74l-36.163-26.48c-1.23-0.89-2.442-2.83-2.442-4.34v-0.92c0-1.51,1.295-3.35,2.605-4.1
			l10.297-5.88l26.529-15.29c1.31-0.76,3.509-0.86,4.889-0.22l46.375,20.95C179.075,241.54,180,243.28,180,244.79z"/>
		<path style="opacity:0.1;" d="M128,271.51v6.42c-0.86-0.03-1.73-0.28-2.37-0.74l-36.18-26.48c-1.23-0.89-2.45-2.83-2.45-4.34
			v-0.92c0-1.51,1.3-3.35,2.61-4.1l10.29-5.88l0.05,0.04l-10.11,5.84c-1.31,0.75-1.38,2.08-0.15,2.97l35.94,26.45
			C126.27,271.23,127.14,271.48,128,271.51z"/>
		<path id="XMLID_4_" style="opacity:0.3;fill:#FFFFFF;" d="M89.837,241.346l36.657-21.167c1.308-0.756,3.48-0.855,4.852-0.222
			l46.568,20.953c1.372,0.633,1.423,1.759,0.114,2.515l-47.81,27.584c-1.308,0.755-3.362,0.651-4.586-0.234l-35.946-26.458
			C88.461,243.432,88.529,242.102,89.837,241.346z"/>
	</g>
</g>
<g id="Character">
	<g id="Character_8_">
		<g id="Chair_1_">
			<g id="Chair_4_">
				<g id="XMLID_64_">
					<path id="XMLID_67_" style="fill:#27DEBF;" d="M372.798,226.815v124.459c0,0.566,0.496,1.255,0.987,1.539l2.44,1.38
						c0.491,0.283,1.311,0.283,1.801,0l2.637-1.38c0.491-0.283,1.135-0.972,1.135-1.539V226.814c0-0.567-0.928-1.213-1.494-1.213
						h-6.283C373.454,225.601,372.798,226.248,372.798,226.815z"/>
					<path id="XMLID_66_" style="opacity:0.1;" d="M372.798,226.815v124.459c0,0.566,0.496,1.255,0.987,1.539l2.44,1.38
						c0.491,0.283,1.311,0.283,1.801,0l2.637-1.38c0.491-0.283,1.135-0.972,1.135-1.539V226.814c0-0.567-0.928-1.213-1.494-1.213
						h-6.283C373.454,225.601,372.798,226.248,372.798,226.815z"/>
					<path id="XMLID_65_" style="fill:#27DEBF;" d="M380.304,225.601h-2.116c-0.566,0-1.39,0.647-1.39,1.213v126.865
						c0,0.567,0.58,0.796,1.071,0.513l2.715-1.38c0.491-0.283,1.214-0.972,1.214-1.539V226.814
						C381.798,226.248,380.87,225.601,380.304,225.601z"/>
				</g>
				<g id="XMLID_60_">
					<path id="XMLID_63_" style="fill:#27DEBF;" d="M336.798,247.541V372c0,0.567,0.389,1.255,0.88,1.539l2.387,1.38
						c0.491,0.283,1.284,0.283,1.775,0l2.23-1.38c0.491-0.283,0.728-0.972,0.728-1.539V247.541c0-0.566-0.141-0.94-0.708-0.94
						h-6.283C337.241,246.601,336.798,246.975,336.798,247.541z"/>
					<path id="XMLID_62_" style="opacity:0.1;" d="M336.798,247.541V372c0,0.567,0.389,1.255,0.88,1.539l2.387,1.38
						c0.491,0.283,1.284,0.283,1.775,0l2.23-1.38c0.491-0.283,0.728-0.972,0.728-1.539V247.541c0-0.566-0.141-0.94-0.708-0.94
						h-6.283C337.241,246.601,336.798,246.975,336.798,247.541z"/>
					<path id="XMLID_61_" style="fill:#27DEBF;" d="M344.09,246.601h-2.116c-0.566,0-1.176,0.373-1.176,0.94v126.865
						c0,0.566,0.473,0.796,0.964,0.513l2.269-1.38c0.491-0.283,0.767-0.972,0.767-1.539V247.541
						C344.798,246.974,344.657,246.601,344.09,246.601z"/>
				</g>
				<g id="XMLID_47_">
					<path id="XMLID_59_" style="fill:#27DEBF;" d="M289.798,227.189v117.608c0,0.597,0.349,1.286,0.84,1.569l2.367,1.38
						c0.491,0.283,1.274,0.283,1.765,0l2.265-1.38c0.491-0.283,0.764-0.972,0.764-1.539V227.219c0-0.567-0.222-0.618-0.788-0.618
						h-6.283C290.16,226.601,289.798,226.653,289.798,227.189z"/>
					<path id="XMLID_58_" style="opacity:0.1;" d="M289.798,227.189v117.608c0,0.597,0.349,1.286,0.84,1.569l2.367,1.38
						c0.491,0.283,1.274,0.283,1.765,0l2.265-1.38c0.491-0.283,0.764-0.972,0.764-1.539V227.219c0-0.567-0.222-0.618-0.788-0.618
						h-6.283C290.16,226.601,289.798,226.653,289.798,227.189z"/>
					<path id="XMLID_57_" style="fill:#27DEBF;" d="M297.01,226.601h-2.116c-0.566,0-1.096,0.052-1.096,0.618v120.014
						c0,0.566,0.433,0.796,0.924,0.513l2.289-1.38c0.491-0.283,0.787-0.972,0.787-1.539V227.219
						C297.798,226.653,297.576,226.601,297.01,226.601z"/>
					<g id="XMLID_52_">
						<polygon id="XMLID_56_" style="fill:#27DEBF;" points="293.877,318.617 298.048,316.203 336.798,338.451 336.798,343.393 
													"/>
						<polygon id="XMLID_55_" style="opacity:0.2;" points="293.877,318.617 298.048,316.203 336.798,338.451 336.798,343.393 
													"/>
						<polygon id="XMLID_54_" style="fill:#27DEBF;" points="293.798,318.617 293.798,323.55 336.798,348.334 336.798,343.393 
													"/>
						<polygon id="XMLID_53_" style="opacity:0.1;" points="293.798,318.617 293.798,323.55 336.798,348.334 336.798,343.393 						
							"/>
					</g>
					<g id="XMLID_48_">
						<polygon id="XMLID_51_" style="fill:#27DEBF;" points="377.003,324.865 372.756,322.451 344.798,338.451 344.798,343.393 
													"/>
						<polygon id="XMLID_50_" style="opacity:0.15;" points="377.003,324.865 372.756,322.451 344.798,338.451 344.798,343.393 
													"/>
						<polygon id="XMLID_49_" style="fill:#27DEBF;" points="376.798,324.865 376.798,329.798 344.798,348.334 344.798,343.393 
													"/>
					</g>
				</g>
				<path id="XMLID_46_" style="fill:#455A64;" d="M352.074,165.049c0.02,0.284-0.01,0.592-0.093,0.915
					c-2.944,10.973-4.423,26.489-4.685,41.147l-7.331-3.563c0.446-14.153,1.969-28.753,4.781-39.506
					c0.608-2.283,2.727-2.93,4.861-1.889C350.93,162.786,351.982,163.767,352.074,165.049z"/>
				<path id="XMLID_45_" style="fill:#27DEBF;" d="M347.921,168.594c0,0-4.037,8.825-3.689,18.763l35.351,20.465l6.854-16.991
					L347.921,168.594z"/>
				<path id="XMLID_3_" style="opacity:0.2;" d="M347.921,168.594c0,0-4.037,8.825-3.689,18.763l35.351,20.465l6.854-16.991
					L347.921,168.594z"/>
				<polygon id="XMLID_44_" style="fill:#27DEBF;" points="389.731,190.219 351.216,167.982 347.921,168.594 386.436,190.831 				
					"/>
				<polygon id="XMLID_43_" style="opacity:0.4;fill:#FFFFFF;" points="389.731,190.219 351.216,167.982 347.921,168.594 
					386.436,190.831 				"/>
				<path id="XMLID_42_" style="fill:#37474F;" d="M391.791,188.609c-4.814,11.59-8.435,25.012-10.461,39.089l-6.836-4.33
					c2.158-13.615,5.643-26.275,10.374-37.653c0.862-2.085,3.35-2.955,5.311-1.849l0.011,0.01
					C391.854,184.816,392.53,186.842,391.791,188.609z"/>
				<path id="XMLID_41_" style="fill:#37474F;" d="M381.798,233.021v0.92c0,1.511-1.227,3.453-2.451,4.338l-36.063,26.481
					c-1.224,0.885-3.336,0.99-4.645,0.235l-47.641-27.584c-1.308-0.755-2.2-2.592-2.2-4.103v-0.944c0-1.511,0.913-3.249,2.285-3.883
					l46.469-20.953c1.371-0.633,3.494-0.534,4.802,0.222l36.866,21.167C380.528,229.673,381.798,231.51,381.798,233.021z"/>
				<path style="fill:#263238;" d="M341,255.5l-18.443-32.486l-6.751-5.681l-24.622,11.148c-1.372,0.633-2.184,2.372-2.184,3.883
					v0.944c0,1.511,0.79,3.348,2.099,4.103l47.591,27.584c0.656,0.379,1.464,0.541,2.311,0.497V255.5z"/>
				<path style="fill:#27DEBF;" d="M288.798,225.891v0.95c0,1.51,0.86,3.34,2.17,4.1l47.71,27.58c0.63,0.36,1.37,0.53,2.17,0.51
					c0.86-0.03,1.705-0.28,2.345-0.74l36.163-26.48c1.23-0.89,2.443-2.83,2.443-4.34v-0.92c0-1.51-1.295-3.35-2.605-4.1
					l-10.298-5.88l-26.529-15.29c-1.31-0.76-3.509-0.86-4.889-0.22l-46.375,20.95C289.723,222.641,288.798,224.381,288.798,225.891z
					"/>
				<path style="opacity:0.1;" d="M340.798,252.611v6.42c0.86-0.03,1.73-0.28,2.37-0.74l36.18-26.48c1.23-0.89,2.45-2.83,2.45-4.34
					v-0.92c0-1.51-1.3-3.35-2.61-4.1l-10.29-5.88l-0.05,0.04l10.11,5.84c1.31,0.75,1.38,2.08,0.15,2.97l-35.94,26.45
					C342.528,252.331,341.658,252.581,340.798,252.611z"/>
				<path id="XMLID_39_" style="opacity:0.3;fill:#FFFFFF;" d="M378.961,222.447l-36.657-21.167
					c-1.308-0.756-3.48-0.855-4.852-0.222l-46.568,20.953c-1.372,0.633-1.423,1.759-0.114,2.515l47.81,27.584
					c1.308,0.755,3.362,0.651,4.587-0.234l35.946-26.458C380.337,224.533,380.269,223.203,378.961,222.447z"/>
			</g>
		</g>
		<g id="Character_7_">
			<g id="XMLID_1174_">
				<g id="XMLID_1175_">
					<path id="XMLID_879_" style="fill:#37474F;" d="M273.251,337.094c-0.312,0.485-0.027,1.743,0.254,2.47
						c0.282,0.727,3.078,3.15,10.099,2.471c7.022-0.679,11.558-4.446,13.946-6.156c2.388-1.709,6.232-4.253,9.882-4.896
						c3.651-0.643,6.793-2.659,7.559-3.773c1.08-1.571,0.482-3.306,0.482-3.306s-0.434-1.635-2.501-2.061
						c-3.245-0.669-27.759,6.565-27.759,6.565L273.251,337.094z"/>
					<path id="XMLID_327_" style="fill:#37474F;" d="M300.406,350.768c-0.12,1.346,1.617,5.404,6.853,5.759
						c5.236,0.355,11.248-1.172,14.878-6.369c3.63-5.197,6.115-9.488,8.18-11.66c1.178-1.239,2.627-2.954,3.285-4.886
						c0.155-0.454,0.146-0.946,0.04-1.414c-0.119-0.525-0.302-1.168-0.525-1.406c-0.541-0.577-0.824-0.839-1.517-1.261
						c-3.686-2.243-10.493-1.213-15.013,3.878C312.069,338.5,300.406,350.768,300.406,350.768z"/>
					<rect id="XMLID_1198_" x="318.952" y="311.346" style="fill:#FFA8A7;" width="11.136" height="19.063"/>
					<polygon id="XMLID_1197_" style="fill:#FFA8A7;" points="310.259,314.708 298.57,317.473 294.097,299.141 306.632,295.971 
											"/>
					<path id="XMLID_1196_" style="fill:#FFA8A7;" d="M319.81,325.238l-0.859-2.298c-0.286,5.168-5.062,11.203-9.486,15.238
						c-3.517,3.208-9.699,7.599-9.549,10.64c0.194,3.925,5.792,5.665,10.622,4.532c3.775-0.885,8.665-3.071,11.249-5.862
						c2.524-2.725,3.926-6.56,5.276-8.386c1.35-1.826,4.297-3.471,5.026-5.585c0.401-1.161-0.12-3.055-0.892-5.139
						c-0.605-1.633-1.111-2.656-1.129-5.074c-0.002,0.24,0,1.232,0,1.232c-0.81,0.897-3.252,1.782-5.777,1.879
						C322.66,326.478,319.797,326.482,319.81,325.238z"/>
					<path id="XMLID_329_" style="fill:#455A64;" d="M304.852,340.816c0,0,3.013-1.93,7.974,0.121
						c4.693,1.94,7.402,6.61,8.125,8.002c0.126,0.242,0.082,0.529-0.108,0.724c-1.299,1.321-6.657,6.163-14.552,5.196
						C301.116,354.224,295.604,347.674,304.852,340.816z"/>
					<path id="XMLID_1195_" style="fill:#FFA8A7;" d="M297.559,313.329c0.115,1.32-0.127,3.453-1.116,4.907
						c-1.336,1.964-3.231,3.005-5.298,4.528c-3.509,2.587-13.072,5.987-16.1,8.22c-1.892,1.395-0.623,5.599,2.741,6.789
						c2.508,0.887,9.842,0.687,15.818-2.069c3.255-1.501,7.948-4.994,10.408-5.944c2.694-1.04,7.511-1.119,9.48-4.563
						c1.674-2.928,0.569-4.884-0.857-7.335c-1.514-2.601-2.492-4.701-3.171-7.512l-0.56,1.876c-0.825,2.117-6.986,4.285-9.968,3.5
						L297.559,313.329z"/>
					<path id="XMLID_349_" style="fill:#455A64;" d="M293.298,336.316c0,0-1.392-8.059-9.951-10.037c0,0-5.751-0.384-9.366,3.837
						c-2.643,3.086-0.511,7.518-0.511,7.518s2.629,3.056,9.392,2.358C290.875,339.166,293.298,336.316,293.298,336.316z"/>
					<path id="XMLID_1194_" style="fill:#455A64;" d="M371.997,204.46c2.281,16.089,0.285,19.246-16.762,32.692
						c-8.79,6.933-25.176,22.505-25.176,22.505s2.261,4.902,2.369,16.426c0.095,10.148,0.114,43.715,0.114,43.715
						s-7.689,3.256-16.872,0.793c0,0-7.628-60.806-6.389-71.485c0.39-3.361,19.386-20.265,22.976-25.78l-28.777,24.821
						c0,0,2.793,6.645,3.152,15.766c0.543,13.771,3.042,41.862,3.042,41.862s-5.91,5.571-14.524,4.14
						c0,0-14.706-63.14-14.706-68.079c0-7.505,31.195-37.591,37.363-42.807c3.52-2.977,7.446-6.156,7.446-6.156L371.997,204.46z"/>
					<path id="XMLID_1193_" style="fill:#37474F;" d="M332.257,223.326c0,0-3.488-3.645-5.739-10.502c0,0,0.283,4.621,1.178,8.199
						c0.894,3.578-24.216,27.125-24.216,27.125L332.257,223.326z"/>
				</g>
			</g>
			<g>
				<g>
					<g id="XMLID_342_">
						<path id="XMLID_920_" style="fill:#FFA8A7;" d="M320.462,138.519c8.441-8.871,11.54-11.309,16.668-11.272l-6.899,27.205
							c0,0-15.365,12.848-25.542,20.466l-5.968-13.161C298.72,161.758,312.021,147.39,320.462,138.519z"/>
					</g>
					<path id="XMLID_358_" style="fill:#27DEBF;" d="M337.129,127.247c0,0-5.883-1.353-12.971,6.322
						c-7.109,7.697-21.851,23.14-21.851,23.14c-0.336,3.253,3.725,14.651,8.132,16.13l16.879-14.824c0,0,8.145-6.637,9.812-11.41
						C338.797,141.832,337.129,127.247,337.129,127.247z"/>
				</g>
				<g id="XMLID_324_">
					<g id="XMLID_341_">
						<path id="XMLID_918_" style="fill:#FFA8A7;" d="M298.72,161.758l-15.093-32.093l-8.58,3.527c0,0,12.564,38.026,14.373,42.157
							c1.07,2.443,4.468,5.403,9.399,3.005c1.086-0.528,3.212-1.789,5.869-3.434"/>
					</g>
					<g id="XMLID_340_">
						<path id="XMLID_916_" style="fill:#FFA8A7;" d="M278.224,142.759c-1.047-3.147-4.377-6.482-4.852-7.819
							c-0.756-2.132-0.434-3.33-0.434-3.33l3.893,0.392L278.224,142.759z"/>
					</g>
					<g id="XMLID_339_">
						<path id="XMLID_905_" style="fill:#FFA8A7;" d="M286.264,135.271c-0.641-1.45-0.751-6.544,0.048-9.475
							c0.799-2.931-1.058-6.593-0.595-8.66c0.462-2.066-0.87-2.685-2.069-1.943c-1.199,0.742-2.398,2.208-2.465,4.34
							c-0.067,2.132-0.2,7.57,0.666,10.214C282.714,132.392,286.264,135.271,286.264,135.271z"/>
					</g>
					<g id="XMLID_338_">
						<path id="XMLID_903_" style="fill:#F28F8F;" d="M284.241,130.274c-0.23,0.666-1.111,1.578-3.948,1.083l-5.245,1.835
							l-2.131-0.12c0,0,3.915,2.891,7.556-0.804C280.472,132.268,284.316,132.749,284.241,130.274z"/>
					</g>
					<g id="XMLID_325_">
						<path id="XMLID_337_" style="fill:#27DEBF;" d="M277.373,112.773c-0.112-1.194-1.106-2.479-3.02-3.65
							c-4.421-2.705-12.054-3.774-17.048-2.389c-2.162,0.6-3.472,1.562-3.907,2.679l-0.067-0.009
							c-1.867,7.5-1.745,16.517,0.281,21.776c0.012,0.036,0.026,0.072,0.039,0.108c0.01,0.026,0.019,0.055,0.029,0.08l0.006,0.001
							c0.324,0.827,0.958,1.653,1.928,2.41c3.283,2.563,9.073,3.374,12.934,1.812c1.141-0.461,1.977-1.081,2.516-1.787l0.005,0.001
							c0.015-0.02,0.03-0.042,0.045-0.062c0.026-0.035,0.052-0.07,0.076-0.105c3.392-4.502,5.985-13.134,6.251-20.856
							L277.373,112.773z"/>
						<g id="XMLID_333_" style="opacity:0.3;">
							<path id="XMLID_369_" style="fill:#FFFFFF;" d="M274.353,109.124c4.421,2.705,3.957,6.021-1.038,7.406
								c-4.994,1.386-12.627,0.316-17.048-2.388c-4.421-2.705-3.957-6.021,1.038-7.406
								C262.299,105.35,269.932,106.419,274.353,109.124z"/>
						</g>
						<g id="XMLID_332_">
							<path id="XMLID_367_" style="fill:#27DEBF;" d="M272.526,110.177c3.611,1.868,3.307,4.035-0.678,4.839
								c-3.985,0.804-10.143-0.059-13.754-1.927c-3.611-1.868-3.307-4.035,0.678-4.839
								C262.757,107.446,268.915,108.309,272.526,110.177z"/>
						</g>
						<g id="XMLID_335_" style="opacity:0.1;">
							<path id="XMLID_356_" d="M272.526,110.177c3.611,1.868,3.307,4.035-0.678,4.839c-3.985,0.804-10.143-0.059-13.754-1.927
								c-3.611-1.868-3.307-4.035,0.678-4.839C262.757,107.446,268.915,108.309,272.526,110.177z"/>
						</g>
						<g id="XMLID_331_">
							<path id="XMLID_365_" style="fill:#37474F;" d="M272.116,113.101c0.773,0.4,1.356,0.813,1.772,1.224
								c-0.513,0.281-1.187,0.518-2.04,0.69c-3.985,0.804-10.143-0.059-13.754-1.927c-0.773-0.4-1.356-0.813-1.772-1.225
								c0.513-0.281,1.187-0.518,2.04-0.69C262.347,110.37,268.505,111.232,272.116,113.101z"/>
						</g>
						<g id="XMLID_330_">
							<g id="XMLID_334_">
								<path id="XMLID_363_" style="fill:#27DEBF;" d="M274.686,133.482c0.936,0.131,1.991,0.137,3.038-0.142
									c1.374-0.368,2.663-1.687,3.942-4.036c1.083-1.986,2.923-6.385,2.139-8.815c-0.994-3.086-4.58-3.527-6.96-3.818
									c-0.283-0.035-0.559-0.068-0.82-0.105l-0.524,3.74c0.281,0.039,0.579,0.076,0.884,0.114
									c1.337,0.161,3.571,0.437,3.825,1.229c0.35,1.522-2.215,7.413-3.524,8.064c-1.242,0.325-2.952-0.311-3.448-0.563
									l-1.704,3.371C271.744,132.627,273.029,133.25,274.686,133.482z"/>
							</g>
						</g>
					</g>
					<path id="XMLID_1171_" style="fill:#F0F0F0;" d="M263.79,102.529c-4.389-2.868-6.373-7.823-3.51-13.047
						c2.863-5.224,5.237-10.333,1.713-14.443c0,0,4.45,0.372,6.077,5.375c1.626,5.003-0.876,9.519-3.346,12.815
						C262.253,96.525,261.808,100.264,263.79,102.529z"/>
					<path id="XMLID_1173_" style="fill:#F0F0F0;" d="M271.885,106.121c-3.944-2.577-5.728-7.031-3.155-11.726
						c2.573-4.695,4.707-9.287,1.539-12.981c0,0,4,0.334,5.462,4.83c1.462,4.496-0.787,8.555-3.007,11.518
						C270.504,100.724,270.104,104.085,271.885,106.121z"/>
					<g id="XMLID_336_">
						<path id="XMLID_359_" style="fill:#FFA8A7;" d="M279.165,121.605c2.332,0,9.188,2.721,9.33,5.191
							c0.142,2.47-4.502,2.284-4.502,2.284s0.785,1.322-0.372,2.313c-1.156,0.991-9.953-2.057-9.953-2.057s0.294-1.193,1.378-2.816
							c0.59-0.883,1.784-1.002,1.784-1.002S275.704,121.605,279.165,121.605z"/>
					</g>
				</g>
			</g>
			<g id="XMLID_1192_">
				<path id="XMLID_1205_" style="fill:#F0F0F0;" d="M365.744,131.617c0,0,5.035,7.46,5.035,17.363v21.389l1.923,36.191
					c-7.655,8.328-41.653,6.675-50.144-11.484c0,0,0.799-39.924,1.948-48.349c1.559-11.439,4.434-19.694,15.47-19.94l14.17,1.947
					L365.744,131.617z"/>
			</g>
			<g>
				<g id="XMLID_4774_">
					
						<line id="XMLID_4600_" style="fill:none;stroke:#000000;stroke-width:0.3324;stroke-miterlimit:10;" x1="334.247" y1="242.848" x2="334.28" y2="242.846"/>
					<path id="XMLID_4597_" style="fill:#EBEBEB;" d="M330.542,231.578c-1.102,3.615-0.419,8.222,1.517,10.293
						c0.667,0.648,1.433,0.974,2.221,0.975c1.154,0,2.352-0.706,3.362-2.14c0.601-0.853,1.073-1.877,1.403-2.981l-4.878,0.142
						l-0.012,0.002c-0.359,0.012-0.727-0.151-1.064-0.51c-0.791-0.847-1.071-2.736-0.618-4.217l3.766,0.411
						c0.004-1.679-0.466-3.322-1.304-4.217c-0.403-0.431-0.837-0.681-1.272-0.764l-0.095-0.016
						C332.369,228.393,331.174,229.497,330.542,231.578z"/>
					<path id="XMLID_4601_" style="fill:#E0E0E0;" d="M332.474,233.142c-0.453,1.48-0.173,3.37,0.618,4.217
						c0.337,0.359,0.705,0.522,1.064,0.51l0.012-0.002c0.696-0.028,1.368-0.723,1.739-1.942c0.228-0.749,0.338-1.562,0.338-2.37
						l-0.003-0.002L332.474,233.142z"/>
					<path id="XMLID_4596_" style="fill:#F5F5F5;" d="M333.665,228.573c0.435,0.083,0.869,0.333,1.272,0.764
						c0.838,0.895,1.308,2.537,1.304,4.217l0.003,0.002c0,0.808-0.11,1.62-0.338,2.37c-0.37,1.218-1.043,1.913-1.739,1.942
						l4.878-0.142c0.82-2.715,0.806-5.928-0.158-8.355L333.665,228.573z"/>
					<path id="XMLID_930_" style="fill:#FAFAFA;" d="M398.295,246.023c2.169-3.08,2.645-8.348,1.062-11.767
						c-0.838-1.811-2.087-2.731-3.398-2.745l0.001-0.01l-26.245-0.348l0,0.002c-0.001,0-0.002,0-0.003,0l0.002-0.003l-5.551-0.489
						c0.066,0.013,0,0,0,0l-28.345-4.425c1.033,0.416,2.158,1.129,2.884,2.702c0.063,0.141,0.126,0.282,0.185,0.43
						c0.964,2.427,0.978,5.639,0.158,8.355c-0.33,1.104-0.803,2.128-1.403,2.981c-1.01,1.434-2.208,2.139-3.362,2.14l28.659,0.437
						l-0.001-0.006c0.022,0.001,0.045-0.009,0.068-0.009c-0.024,0.001-0.039,0.012-0.064,0.011l-0.002,0.003l5.579,0.499
						l0.003,0.002l0,0v0.001l25.923,4.338l0.001-0.009C395.741,248.341,397.141,247.661,398.295,246.023z"/>
					<path id="XMLID_928_" style="fill:#E0E0E0;" d="M342.587,229.398c0,0,3.026,6.336-2.259,13.54l4.599,0.07
						c0,0,4.468-5.1,2.214-12.701L342.587,229.398z"/>
					<path id="XMLID_932_" style="fill:#F0F0F0;" d="M350.064,231.265l13.651,2.324c0,0,1.803,5.394-0.71,9.679l-14.602-0.207
						C348.403,243.061,351.811,237.366,350.064,231.265z"/>
					<path id="XMLID_935_" style="fill:#E0E0E0;" d="M363.715,233.589l-5.396-0.918l0,0l-3.401,5.805l3.092,3.11l-1.124,1.596
						l6.12,0.087C365.518,238.983,363.715,233.589,363.715,233.589z"/>
					<path id="XMLID_931_" style="fill:#FAFAFA;" d="M352.819,236.183c-0.618-0.286-0.837-1.126-0.49-1.875
						c0.347-0.749,1.129-1.125,1.747-0.839c0.618,0.286,0.837,1.126,0.49,1.875C354.219,236.094,353.437,236.47,352.819,236.183z"/>
					<g id="XMLID_934_">
						<path id="XMLID_991_" style="fill:#E0E0E0;" d="M382.016,233.687c0,0,2.027,5.292-1.868,12.044l1.434,0.24
							c0,0,3.591-5.161,2.05-12.282L382.016,233.687z"/>
						<path id="XMLID_990_" style="fill:#E0E0E0;" d="M385.854,233.902c0,0,2.2,5.86-1.991,12.45l1.44,0.241
							c0,0,4.012-5.278,2.126-12.692L385.854,233.902z"/>
						<path id="XMLID_989_" style="fill:#E0E0E0;" d="M389.692,234.117c0,0,2.373,6.428-2.115,12.857l1.446,0.242
							c0,0,4.434-5.396,2.201-13.102L389.692,234.117z"/>
						<path id="XMLID_988_" style="fill:#E0E0E0;" d="M393.53,234.332c0,0,2.545,6.996-2.239,13.263l1.451,0.243
							c0,0,4.855-5.513,2.277-13.513L393.53,234.332z"/>
					</g>
				</g>
				<path id="XMLID_929_" style="fill:#FFA8A7;" d="M374.494,174.919l7.588,15.28c0,0-11.262,32.053-13.807,35.08
					c-2.545,3.026-5.365,2.612-6.954,4.867c0,0,2.464,0.702,4.551,0.667c1.949,2.397,0.775,9.094-2.329,12.524
					c0,0,0.8,3.161,6.411,4.279c1.772,0.353,5.232,0.094,6.956-1.145c3.466-2.493,6.059-9.84,5.467-14.281
					c-0.464-3.482-0.414-5.919,1.052-9.138c6.937-15.23,9.98-22.128,14.326-30.179c-0.962-7.158-10.178-28.833-10.178-28.833
					L374.494,174.919z"/>
				<path id="XMLID_366_" style="fill:#27DEBF;" d="M365.744,131.617c8.605,3.127,13.012,11.727,17.872,21.457
					c4.86,9.729,9.269,20.176,9.269,20.176s-4.99,7.002-15.836,9.163l-10.39-19.363
					C366.659,163.049,356.109,146.274,365.744,131.617z"/>
			</g>
			<g id="XMLID_1176_">
				
					<ellipse id="XMLID_1191_" transform="matrix(0.2298 -0.9732 0.9732 0.2298 165.5243 399.6158)" style="fill:#263238;" cx="335.23" cy="95.234" rx="15.497" ry="15.497"/>
				<g id="XMLID_1184_">
					<path id="XMLID_1190_" style="fill:#263238;" d="M360.586,104.488c0,0-2.377,11.167-3.33,13.002
						c-0.953,1.835-2.923,2.356-2.923,2.356l0.166-7.856L360.586,104.488z"/>
					<path id="XMLID_1189_" style="fill:#263238;" d="M357.603,88.49c0,0,2.56-0.439,4.556,1.602
						c1.956,2.001,0.864,8.263-1.573,14.396l-4.477,0.514L357.603,88.49z"/>
					<path id="XMLID_1188_" style="fill:#FFA8A7;" d="M354.766,105.006c0.898,0.536,2.178-1.188,3.286-2.347
						c1.107-1.158,4.721-2.741,6.525,1.058c1.837,3.872-1.592,8.987-4.437,9.881c-4.904,1.539-5.64-1.606-5.64-1.606l-0.374,17.689
						c-4.226,4.721-18.679,3.595-15.955-0.468l0.014-5.383c0,0-4.443,0.674-6.611,0.339c-3.607-0.558-5.875-3.403-6.969-7.307
						c-1.757-6.27-2.424-11.333-0.934-23.664c1.634-13.516,17.354-13.656,25.844-8.313
						C358.003,90.227,354.766,105.006,354.766,105.006z"/>
					<path id="XMLID_1187_" style="fill:#263238;" d="M354.766,106.516c0.452,0.009,2.168-2.84,3.286-3.857
						c1.549-1.409-0.449-14.169-0.449-14.169s1.488-3.172-1.494-6.454c-2.121-2.335-5.667-2.594-11.72-3.545
						c-3.176-0.499-7.991-1.388-11.162-1.978c-3.787-0.704-6.922-1.449-9.596,0.874c-2.081,1.808-2.977,5.004-1.857,7.523
						c0.263,0.591,0.643,1.124,1.076,1.605c0.767,0.853,1.634,1.523,2.725,1.877c0,0,1.651,1.465,7.396,2.165
						c5.745,0.7,14.692-0.134,15.915-0.302c1.666-0.228,2.021,1.387,2.919,5.797C352.594,99.925,353.248,106.487,354.766,106.516z"
						/>
					<path id="XMLID_1186_" style="fill:#263238;" d="M357.594,89.482l5.428-2.914c-0.77-1.555-2.61-2.164-4.109-1.359
						C357.414,86.014,356.824,87.927,357.594,89.482z"/>
					<path id="XMLID_1185_" style="fill:#F28F8F;" d="M338.184,123.828c0,0,8.05-1.622,10.865-3.118
						c1.884-1.001,3.435-2.737,3.891-3.849c0,0-0.527,2.389-2.21,4.54c-2.058,2.631-12.545,4.569-12.545,4.569L338.184,123.828z"/>
				</g>
				<g id="XMLID_1177_">
					<path id="XMLID_1183_" style="fill:#263238;" d="M340.119,102.993c0,0.926,0.723,1.674,1.613,1.672
						c0.891-0.002,1.613-0.755,1.613-1.681c0-0.926-0.722-1.674-1.613-1.672C340.841,101.315,340.119,102.067,340.119,102.993z"/>
					<path id="XMLID_1182_" style="fill:#263238;" d="M342.709,96.314l3.451,1.905c0.509-0.991,0.149-2.222-0.804-2.748
						C344.403,94.945,343.218,95.322,342.709,96.314z"/>
					<path id="XMLID_1181_" style="fill:#F28F8F;" d="M338.913,114.137l-3.683,1.382c0.365,1.056,1.484,1.602,2.502,1.221
						C338.749,116.358,339.278,115.193,338.913,114.137z"/>
					<path id="XMLID_1180_" style="fill:#263238;" d="M325.319,97.733l3.147-2.424c-0.642-0.901-1.867-1.089-2.736-0.42
						C324.862,95.559,324.677,96.832,325.319,97.733z"/>
					<path id="XMLID_1179_" style="fill:#263238;" d="M326.701,102.534c0,0.926,0.722,1.674,1.614,1.671
						c0.891-0.003,1.613-0.755,1.613-1.681c0-0.926-0.722-1.674-1.613-1.672C327.424,100.855,326.701,101.608,326.701,102.534z"/>
					<polygon id="XMLID_1178_" style="fill:#F28F8F;" points="334.674,101.239 334.487,111.022 328.704,109.748 					"/>
				</g>
			</g>
		</g>
	</g>
</g>
<g id="Sun_1_">
	<g id="Sun">
		<circle id="XMLID_983_" style="fill:#27DEBF;" cx="132.281" cy="96.801" r="19.497"/>
		<path id="XMLID_1427_" style="fill:#27DEBF;" d="M132.281,71.67c-1.013,0-1.835-0.821-1.835-1.835v-8.609
			c0-1.014,0.822-1.835,1.835-1.835s1.835,0.821,1.835,1.835v8.609C134.117,70.849,133.295,71.67,132.281,71.67z"/>
		<path id="XMLID_1426_" style="fill:#27DEBF;" d="M116.431,76.82c-0.568,0-1.127-0.262-1.486-0.756l-5.06-6.965
			c-0.595-0.82-0.413-1.968,0.406-2.563c0.821-0.595,1.968-0.413,2.564,0.406l5.06,6.965c0.595,0.82,0.413,1.968-0.406,2.563
			C117.183,76.706,116.805,76.82,116.431,76.82z"/>
		<path id="XMLID_1425_" style="fill:#27DEBF;" d="M106.635,90.304c-0.188,0-0.379-0.029-0.568-0.09l-8.188-2.66
			c-0.963-0.314-1.491-1.349-1.178-2.313c0.313-0.963,1.347-1.49,2.313-1.179l8.188,2.66c0.963,0.314,1.491,1.349,1.178,2.313
			C108.129,89.81,107.409,90.304,106.635,90.304z"/>
		<path id="XMLID_1424_" style="fill:#27DEBF;" d="M98.447,109.63c-0.774,0-1.493-0.493-1.746-1.269
			c-0.313-0.964,0.215-1.999,1.178-2.313l8.188-2.66c0.967-0.314,1.999,0.215,2.313,1.179c0.313,0.964-0.215,1.999-1.178,2.313
			l-8.188,2.66C98.826,109.601,98.635,109.63,98.447,109.63z"/>
		<path id="XMLID_1423_" style="fill:#27DEBF;" d="M111.369,127.417c-0.374,0-0.752-0.113-1.078-0.351
			c-0.82-0.596-1.001-1.743-0.406-2.563l5.06-6.965c0.596-0.82,1.742-1.003,2.564-0.406c0.82,0.596,1.001,1.743,0.406,2.563
			l-5.06,6.965C112.496,127.155,111.936,127.417,111.369,127.417z"/>
		<path id="XMLID_1422_" style="fill:#27DEBF;" d="M132.281,134.212c-1.013,0-1.835-0.821-1.835-1.835v-8.609
			c0-1.014,0.822-1.835,1.835-1.835s1.835,0.821,1.835,1.835v8.609C134.117,133.39,133.295,134.212,132.281,134.212z"/>
		<path id="XMLID_1421_" style="fill:#27DEBF;" d="M153.193,127.417c-0.567,0-1.127-0.262-1.486-0.756l-5.06-6.965
			c-0.595-0.82-0.413-1.968,0.406-2.563c0.822-0.594,1.968-0.413,2.564,0.406l5.06,6.965c0.595,0.82,0.413,1.968-0.406,2.563
			C153.945,127.303,153.567,127.417,153.193,127.417z"/>
		<path id="XMLID_1207_" style="fill:#27DEBF;" d="M166.115,109.63c-0.188,0-0.379-0.029-0.568-0.09l-8.187-2.66
			c-0.963-0.314-1.491-1.349-1.178-2.313c0.313-0.963,1.345-1.492,2.313-1.179l8.187,2.66c0.963,0.314,1.491,1.349,1.178,2.313
			C167.608,109.137,166.889,109.63,166.115,109.63z"/>
		<path id="XMLID_1206_" style="fill:#27DEBF;" d="M157.928,90.304c-0.774,0-1.493-0.493-1.746-1.269
			c-0.313-0.964,0.215-1.999,1.178-2.313l8.187-2.66c0.967-0.313,2,0.214,2.313,1.179c0.313,0.964-0.215,1.999-1.178,2.313
			l-8.187,2.66C158.307,90.274,158.116,90.304,157.928,90.304z"/>
		<path id="XMLID_1204_" style="fill:#27DEBF;" d="M148.131,76.82c-0.374,0-0.751-0.114-1.078-0.351
			c-0.82-0.596-1.001-1.743-0.406-2.563l5.06-6.965c0.596-0.82,1.742-1.002,2.564-0.406c0.82,0.596,1.001,1.743,0.406,2.563
			l-5.06,6.965C149.257,76.557,148.698,76.82,148.131,76.82z"/>
	</g>
</g>
</svg>
