<?xml version="1.0" encoding="utf-8"?>
<!-- Generator: Adobe Illustrator 27.5.0, SVG Export Plug-In . SVG Version: 6.00 Build 0)  -->
<svg version="1.1" xmlns="http://www.w3.org/2000/svg" xmlns:xlink="http://www.w3.org/1999/xlink" x="0px" y="0px"
	 viewBox="0 0 500 500" style="enable-background:new 0 0 500 500;" xml:space="preserve">
<g id="Floor">
	<ellipse id="Floor_5_" style="fill:#F5F5F5;" cx="250.965" cy="372.376" rx="205.127" ry="107.971"/>
</g>
<g id="Shadows">
	<polygon id="Shadow_26_" style="fill:#E0E0E0;" points="302.798,423.882 217.494,374.632 351.543,297.239 436.846,346.489 	"/>
	<ellipse id="Shadow_27_" style="fill:#E0E0E0;" cx="163.859" cy="414.526" rx="60.959" ry="35.195"/>
</g>
<g id="Plants">
	<g id="Plants_7_">
		<g id="XMLID_1359_">
			<g id="XMLID_1383_">
				<path id="XMLID_1480_" style="fill:#27DEBF;" d="M420.614,321.777c0,0-0.511-12.082,3.95-22.221
					c4.461-10.138,11.673-17.16,19.15-18.945c7.477-1.785,14.682,4.222,7.332,10.274s-20.977,13.189-24.796,32.116L420.614,321.777z
					"/>
				<path id="XMLID_1405_" style="opacity:0.15;" d="M420.614,321.777c0,0-0.511-12.082,3.95-22.221
					c4.461-10.138,11.673-17.16,19.15-18.945c7.477-1.785,14.682,4.222,7.332,10.274s-20.977,13.189-24.796,32.116L420.614,321.777z
					"/>
			</g>
			<path id="XMLID_1362_" style="fill:#FFFFFF;" d="M422.35,322.347c-0.028-0.001-0.056-0.004-0.084-0.011
				c-0.22-0.051-0.357-0.272-0.305-0.492c4.905-20.927,18.827-35.526,25.503-38.206c0.208-0.086,0.447,0.018,0.532,0.227
				c0.084,0.21-0.017,0.448-0.227,0.532c-6.54,2.626-20.183,17.035-25.011,37.633C422.714,322.223,422.54,322.352,422.35,322.347z"
				/>
		</g>
		<g id="XMLID_649_">
			<g>
				<path id="XMLID_1357_" style="fill:#27DEBF;" d="M440.072,338.329c-1.133,3.66-3.899,5.655-7.655,6.384
					c-2.385,0.463-6.225,0.013-8.24-1.489c-2.809-2.094-3.758-3.579-4.344-5.61c-0.586-2.031-1.087-4.718-1.213-8.297
					c-0.072-2.047,1.047-3.866,1.886-5.059c0.408-0.58,0.971-1.102,1.456-1.617c0.57-0.607,1.214-1.138,1.819-1.708
					c0.819-0.772,1.592-1.653,1.923-2.729c0.467-1.52-0.017-3.153,0.015-4.742c0.034-1.704,0.69-3.389,1.818-4.667
					c0.979-1.109,2.305-1.903,3.741-2.254c1.557-0.381,3.152-0.692,4.755-0.84c2.384-0.221,4.957,0.473,7.282-0.257
					c2.262-0.71,4.343-1.914,6.724-2.369c2.49-0.475,5.257-0.097,7.206,1.633c1.095,0.972,1.884,2.427,1.653,3.873
					c-0.256,1.594-1.617,2.747-2.913,3.714c-1.288,0.959-2.702,2.008-3.129,3.563c-0.858,3.141,2.743,6.289,1.75,9.389
					c-0.417,1.3-1.584,2.235-2.822,2.811c-1.026,0.487-2.126,0.776-3.197,1.157c-0.53,0.128-1.061,0.227-1.588,0.29
					c-1.56,0.178-3.208,0.538-4.382,1.671C440.775,332.962,440.831,335.873,440.072,338.329z"/>
			</g>
			<path style="fill:#FFFFFF;" d="M432.275,319.65c0.714-0.919,1.499-1.788,2.308-2.626c1.785-1.848,3.769-3.501,5.886-4.954
				c3.271-2.246,6.895-4.105,10.695-5.275c0.749-0.23,1.51-0.439,2.283-0.566c0.195-0.03,0.384,0.102,0.418,0.299
				c0.033,0.198-0.101,0.385-0.299,0.418c-3.319,0.547-13.044,4.067-19.923,12.187c9.246-2.399,15.775,2.254,15.843,2.303
				c0.162,0.118,0.197,0.345,0.079,0.508c-0.073,0.099-0.187,0.151-0.302,0.149c-0.072-0.001-0.144-0.024-0.206-0.07
				c-2.583-1.88-6.178-2.708-9.3-2.835c-2.106-0.086-4.223,0.186-6.261,0.717c-1.183,0.308-1.606,1.073-2.088,2.142
				c-1.227,2.723-2.288,5.521-3.175,8.373c-0.443,1.426-0.843,2.866-1.199,4.316c-0.167,0.68-0.337,1.359-0.494,2.041
				c-0.159,0.693-0.489,1.538-0.489,2.248c-0.297,1.439-0.565,2.884-0.803,4.334c-0.016,0.095-0.03,0.19-0.046,0.284
				c-0.024,0.145-0.058,0.307-0.182,0.386c-0.165,0.104-0.397-0.015-0.481-0.19c-0.084-0.176-0.063-0.381-0.039-0.575
				c0.563-4.458,1.894-8.779,3.219-13.072C428.853,326.524,429.89,322.717,432.275,319.65z"/>
		</g>
	</g>
</g>
<g id="Window">
	<g id="Window_11_">
		<polygon id="XMLID_1371_" style="fill:#FAFAFA;" points="445.286,215.341 442.55,216.972 340.241,157.63 342.975,155.997 		"/>
		<g id="XMLID_1363_">
			<g id="XMLID_1364_">
				<g id="XMLID_1369_">
					<polygon id="XMLID_1370_" style="fill:#FFFFFF;" points="342.975,155.997 442.549,213.754 442.549,129.268 342.975,71.53 					
						"/>
				</g>
			</g>
		</g>
		<polygon id="XMLID_1353_" style="fill:#F0F0F0;" points="392.687,97.466 392.687,185.168 387.523,182.189 387.523,94.485 		"/>
		<polygon id="XMLID_1351_" style="fill:#E0E0E0;" points="395.268,95.969 392.687,97.466 392.687,185.168 395.268,183.671 		"/>
		<path id="XMLID_1344_" style="fill:#F0F0F0;" d="M335.076,160.609l112.636,65.305l0.001-99.626L335.077,60.983L335.076,160.609z
			 M340.241,69.925l102.309,59.343l0.001,87.705L340.241,157.63V69.925z"/>
		<polygon id="XMLID_1342_" style="fill:#E0E0E0;" points="340.241,157.63 342.975,155.997 342.975,71.53 340.241,69.925 		"/>
		<polygon id="XMLID_1341_" style="fill:#FAFAFA;" points="335.077,60.983 337.855,59.392 450.491,124.697 447.713,126.287 		"/>
		<polygon id="XMLID_1340_" style="fill:#E0E0E0;" points="450.491,124.697 447.713,126.287 447.712,225.914 450.49,224.323 		"/>
		<polygon id="XMLID_1339_" style="fill:#E0E0E0;" points="392.686,100.439 387.537,97.466 387.537,100.447 392.687,103.42 		"/>
		<polygon id="XMLID_1336_" style="opacity:0.15;" points="392.687,103.42 395.267,101.929 392.686,100.439 		"/>
	</g>
</g>
<g id="Board_1_">
	<g id="Board">
		<g>
			<polygon id="XMLID_300_" style="fill:#37474F;" points="247.202,201.437 53.755,313.123 53.755,311.388 247.202,199.701 			"/>
			<polygon style="fill:#455A64;" points="241.61,196.473 247.202,199.701 53.755,311.388 48.164,308.159 			"/>
			<polygon style="fill:#263238;" points="48.164,308.159 53.755,311.388 53.755,313.123 48.164,309.895 			"/>
		</g>
		<g id="XMLID_299_">
			<polygon id="XMLID_551_" style="fill:#27DEBF;" points="237.311,198.955 52.462,305.677 52.462,151.798 237.311,45.075 			"/>
			<polygon id="XMLID_296_" style="opacity:0.2;" points="237.311,198.955 52.462,305.677 52.462,151.798 237.311,45.075 			"/>
			<polygon id="XMLID_549_" style="fill:#37474F;" points="57.396,296.249 57.396,155.528 232.376,54.503 232.376,195.224 			"/>
			<polygon style="fill:#263238;" points="232.376,54.503 61.174,153.347 57.396,155.528 57.396,160.566 57.396,296.249 
				61.174,294.068 61.174,158.384 232.376,59.541 			"/>
			<polygon id="XMLID_498_" style="opacity:0.3;" points="57.396,296.249 52.462,305.677 237.311,198.955 232.376,195.224 			"/>
			<polygon id="XMLID_467_" style="opacity:0.15;" points="232.376,54.503 237.311,45.075 52.462,151.798 57.396,155.528 			"/>
		</g>
		<g>
			<polygon style="fill:#27DEBF;" points="48.163,149.316 52.462,151.798 52.462,305.677 48.164,303.195 			"/>
			<polygon style="opacity:0.35;" points="48.163,149.316 52.462,151.798 52.462,305.677 48.164,303.195 			"/>
		</g>
		<g>
			<polygon style="fill:#27DEBF;" points="237.311,45.075 233.012,42.593 48.163,149.316 52.462,151.798 			"/>
			<polygon style="opacity:0.1;" points="237.311,45.075 233.012,42.593 48.163,149.316 52.462,151.798 			"/>
		</g>
		<path id="XMLID_298_" style="fill:#455A64;" d="M207.404,164.055c0.039,0.056,0.072,0.137,0.099,0.246
			c-0.041-0.081-0.09-0.152-0.132-0.232c-0.165,0.069-0.324,0.124-0.495,0.208c0.196-0.267,0.347-0.342,0.463-0.265
			c-0.323-0.595-0.674-1.151-1.068-1.648c-1.177-1.645-2.535-2.966-4.337-3.441c-2.292-0.604-5.122,0.751-7.829,2.453
			c3.554-8.346,7.833-16.221,7.824-24.815c-0.009-8.99-6.573-9.035-11.911-1.72c-3.841,5.264-7.665,10.607-11.455,16.005
			c4.377-9.23,7.596-18.72,6.205-26.672c-0.971-5.555-5.284-5.795-9.553-1.835c-2.587,2.399-5.348,6.206-8.279,10.11
			c-2.368,3.154-4.801,6.359-7.07,9.725c1.666-3.574,3.172-7.123,3.767-11.013c0.86-5.618-0.407-12.764-5.109-11.139
			c-3.891,1.344-7.098,4.846-10.096,9.031c1.225-4.707,1.271-9.477-1.49-10.82c-1.764-0.858-3.76,0.07-5.656,1.863
			c0.041-0.058,0.081-0.117,0.122-0.175c-1.077,0.901-2.047,2.033-2.91,3.398c-0.209,0.302-0.401,0.612-0.595,0.922
			c-3.499,4.823-6.221,10.724-9.153,16.143c-1.826,3.376-3.553,6.719-5.368,10.036c0.513-7.036-1.769-12.442-8.217-7.35
			c-2.753,2.174-5.103,5.6-7.449,8.286c-0.3,0.344-0.616,0.686-0.946,1.035c-0.752-1.58-1.928-2.6-3.529-2.63
			c-3.523-0.066-7.425,1.623-11.331,5.766c-5.51,5.843-9.092,20.576-1.54,18.602c1.072-0.28,2.155-0.789,3.228-1.154
			c0.072,1.144,0.283,2.232,0.694,3.254c1.374,3.421,4.098,3.181,7.124,1.271c-2.155,5.288-4.446,10.515-6.489,15.835
			c-1.454,3.786-2.818,7.869-4.443,11.609c-2.635,6.063-5.575,11.924-7.104,18.37c-0.284,1.196-0.412,2.288-0.395,3.243
			c-0.408,1.059-0.802,2.124-1.181,3.193c-2.568,7.252-0.297,15.586,4.937,13.92c7.504-2.39,15.549-16.726,21.056-25.763
			c2.773-4.551,5.691-9.081,8.636-13.568c-0.018,0.038-0.035,0.076-0.053,0.113c-1.194,2.528-2.53,5.124-3.644,7.686
			c-0.39,0.98-0.746,1.97-1.108,2.958c-0.03,0.058-0.05,0.096-0.082,0.158c-5.325,9.37-12.269,27.82-8.009,34.708
			c1.419,2.295,3.88,3.512,6.815,1.273c6.872-5.243,12.711-17.018,17.622-25.713c3.276-5.8,6.721-11.749,10.056-17.749
			c-0.815,2.945-1.46,5.822-1.805,8.388c-1.084,8.073,2.224,12.286,7.855,9.333c4.144-2.173,8.482-9.112,11.623-13.956
			c4.213-6.498,8.643-12.649,12.883-19.092c-0.257,2.057-0.331,4.042-0.154,5.913c0.657,6.966,4.83,9.259,10.337,3.69
			c5.151-5.208,9.698-13.373,15.086-16.88c0.624,1.04,1.916,2.302,2.035,2.419c2.552,2.506,5.984,2.69,9.852,0.741
			C215.283,183.522,217.187,160.042,207.404,164.055z"/>
		<path id="XMLID_386_" style="fill:#27DEBF;" d="M238.731,198.015l-43.345-8.57c-0.232-0.045-0.521,0.345-0.521,0.702v33.598
			c0,0.256,0.156,0.374,0.348,0.263l43.345-25.027C238.912,198.774,239.038,198.074,238.731,198.015z M201.506,211.601V197.68
			l18.085,3.48L201.506,211.601z"/>
		<g>
			<path style="fill:#FAFAFA;" d="M102.284,279.072c0-1.036-0.727-2.295-1.624-2.813c-0.448-0.259-0.853-0.283-1.147-0.114l0,0
				l-18.352,10.595l2.298,3.978l18.352-10.595l0-0.001C102.103,279.951,102.284,279.589,102.284,279.072z"/>
			<path style="fill:#E6E6E6;" d="M82.306,286.855c0.897,0.518,1.624,1.777,1.624,2.813s-0.727,1.456-1.624,0.938
				c-0.897-0.518-1.624-1.777-1.624-2.813C80.682,286.757,81.409,286.337,82.306,286.855z"/>
		</g>
		<g>
			<g id="XMLID_560_">
				<g id="XMLID_564_">
					<path style="fill:#FAFAFA;" d="M179.72,179.085c-3.797,0-5.35-1.655-5.984-3.043c-1.493-3.269,0.458-8.385,5.352-14.036
						c7.633-8.814,20.112-15.984,27.819-15.985c3.797-0.001,5.35,1.654,5.984,3.043c1.494,3.269-0.457,8.385-5.352,14.037
						C199.906,171.915,187.426,179.085,179.72,179.085z M206.907,147.694c-7.285,0.001-19.197,6.912-26.554,15.408l0,0
						c-4.316,4.984-6.269,9.676-5.095,12.245c0.779,1.707,2.856,2.065,4.462,2.066c7.284,0,19.196-6.912,26.554-15.408
						c4.317-4.984,6.27-9.676,5.096-12.246C210.589,148.052,208.512,147.694,206.907,147.694z M179.72,162.554h0.01H179.72z"/>
				</g>
				<g id="XMLID_563_">
					<path style="fill:#FAFAFA;" d="M175.376,169.772c-0.088,0-0.178-0.014-0.266-0.044c-0.439-0.147-0.675-0.621-0.527-1.059
						l17.941-53.471c0.105-0.315,0.388-0.538,0.719-0.567c0.338-0.022,0.648,0.141,0.808,0.432l17.941,32.755
						c0.223,0.405,0.073,0.914-0.331,1.136c-0.406,0.222-0.915,0.073-1.136-0.332l-17.023-31.078l-17.332,51.658
						C176.051,169.551,175.725,169.772,175.376,169.772z"/>
				</g>
				<g id="XMLID_562_">
					<path style="fill:#FAFAFA;" d="M193.313,163.39L193.313,163.39c-0.462,0-0.837-0.374-0.837-0.837l0.003-47.09
						c0-0.462,0.375-0.836,0.837-0.836l0,0c0.462,0,0.837,0.374,0.837,0.836l-0.003,47.09
						C194.15,163.016,193.775,163.39,193.313,163.39z"/>
				</g>
			</g>
			<g id="XMLID_555_">
				<g>
					<path style="fill:#FAFAFA;" d="M185.196,120.992c-0.289,0-0.57-0.15-0.726-0.419c-0.23-0.4-0.094-0.912,0.307-1.143
						l2.898-1.673c0.401-0.232,0.911-0.094,1.143,0.307c0.23,0.4,0.094,0.912-0.307,1.143l-2.898,1.673
						C185.481,120.956,185.337,120.992,185.196,120.992z"/>
				</g>
				<g>
					<path style="fill:#FAFAFA;" d="M148.042,142.437c-0.289,0-0.57-0.15-0.726-0.419c-0.23-0.4-0.094-0.912,0.307-1.143
						l6.192-3.574c0.4-0.231,0.911-0.093,1.143,0.307c0.23,0.4,0.094,0.912-0.307,1.143l-6.192,3.574
						C148.327,142.401,148.183,142.437,148.042,142.437z M160.426,135.289c-0.289,0-0.57-0.15-0.726-0.419
						c-0.23-0.4-0.094-0.912,0.307-1.143l6.192-3.574c0.401-0.231,0.911-0.093,1.143,0.307c0.23,0.4,0.094,0.912-0.307,1.143
						l-6.192,3.574C160.712,135.253,160.568,135.289,160.426,135.289z M172.811,128.14c-0.289,0-0.57-0.15-0.726-0.419
						c-0.23-0.4-0.094-0.912,0.307-1.143l6.192-3.574c0.4-0.232,0.911-0.094,1.143,0.307c0.23,0.4,0.094,0.912-0.307,1.143
						l-6.192,3.574C173.096,128.104,172.953,128.14,172.811,128.14z"/>
				</g>
				<g>
					<path style="fill:#FAFAFA;" d="M138.95,147.684c-0.289,0-0.57-0.15-0.726-0.419c-0.23-0.4-0.094-0.912,0.307-1.143l2.898-1.673
						c0.401-0.232,0.911-0.094,1.143,0.307c0.23,0.4,0.094,0.912-0.307,1.143l-2.898,1.673
						C139.235,147.648,139.091,147.684,138.95,147.684z"/>
				</g>
			</g>
			<g id="XMLID_390_">
				<g>
					<path style="fill:#FAFAFA;" d="M185.196,168.082c-0.289,0-0.57-0.15-0.726-0.419c-0.23-0.4-0.094-0.912,0.307-1.143
						l2.898-1.673c0.401-0.232,0.911-0.094,1.143,0.307c0.23,0.4,0.094,0.912-0.307,1.143l-2.898,1.673
						C185.481,168.045,185.337,168.082,185.196,168.082z"/>
				</g>
				<g>
					<path style="fill:#FAFAFA;" d="M148.042,189.527c-0.289,0-0.57-0.15-0.726-0.419c-0.23-0.4-0.094-0.912,0.307-1.143
						l6.192-3.574c0.4-0.231,0.911-0.094,1.143,0.307c0.23,0.4,0.094,0.912-0.307,1.143l-6.192,3.574
						C148.327,189.491,148.183,189.527,148.042,189.527z M160.426,182.378c-0.289,0-0.57-0.15-0.726-0.419
						c-0.23-0.4-0.094-0.912,0.307-1.143l6.192-3.574c0.401-0.232,0.911-0.094,1.143,0.307c0.23,0.4,0.094,0.912-0.307,1.143
						l-6.192,3.574C160.712,182.342,160.568,182.378,160.426,182.378z M172.811,175.23c-0.289,0-0.57-0.15-0.726-0.419
						c-0.23-0.4-0.094-0.912,0.307-1.143l6.192-3.574c0.4-0.231,0.911-0.093,1.143,0.307c0.23,0.4,0.094,0.912-0.307,1.143
						l-6.192,3.574C173.096,175.194,172.953,175.23,172.811,175.23z"/>
				</g>
				<g>
					<path style="fill:#FAFAFA;" d="M138.95,194.773c-0.289,0-0.57-0.15-0.726-0.419c-0.23-0.4-0.094-0.912,0.307-1.143l2.898-1.672
						c0.401-0.232,0.911-0.093,1.143,0.307c0.23,0.4,0.094,0.912-0.307,1.143l-2.898,1.672
						C139.235,194.737,139.091,194.773,138.95,194.773z"/>
				</g>
			</g>
			<path style="fill:#FAFAFA;" d="M129.481,151.721c-1.176,1.055-2.718-2.116-2.537-3.115c0.134-0.743-1.217-1.4-1.422-0.495
				c-0.478,2.121-1.402,4.052-2.095,6.095c-0.207,0.61-0.379,1.228-0.628,1.823c-0.104,0.248-0.218,0.676-0.428,0.859
				c-0.147,0.08-0.166,0.162-0.057,0.245c-0.183-0.16-0.303-0.355-0.357-0.585c-0.564-1.357-0.053-3.263,0.215-4.664
				c0.209-1.09,0.616-2.579-0.146-3.544c-0.263-0.333-0.822-0.591-1.176-0.231c-0.601,0.613-4.248,6.904-5.06,6.1
				c-0.3-0.297-0.815-0.402-1.059,0.007c-0.511,0.856-0.893,1.785-1.389,2.65c-0.249,0.434-0.658,0.879-0.862,1.325
				c-0.011,0.024-0.043,0.041-0.067,0.061c-0.049-0.163-0.098-0.326-0.123-0.494c-0.103-0.527-0.949-1.161-1.324-0.51
				c-0.57,0.99-0.762,2.199-1.38,3.153c-0.07,0.108-0.174,0.207-0.272,0.305c-0.003-0.032-0.013-0.063-0.014-0.095
				c0.018-0.427-0.078-0.899-0.19-1.309c-0.14-0.512-1.288-1.098-1.591-0.424c-0.795,1.768-1.259,4.125-2.758,5.464
				c-0.226,0.202-0.452,0.301-0.67,0.348c0.007-0.013,0.015-0.025,0.022-0.038c0.603-1.077,1.59-2.692,1.063-3.969
				c-0.41-0.993-1.522-1.281-2.387-0.684c-1.677,1.156-1.997,3.506-0.958,4.999c-0.538,0.868-1.126,1.713-1.966,2.311
				c-1.198,0.853-3.231,1.207-4.494,0.246c-0.207-0.158-0.366-0.424-0.484-0.733c0.46-1.145,0.793-2.31,0.99-3.561
				c0.073-0.466-0.57-1.185-1.063-0.908c-0.925,0.52-1.263,1.969-1.322,3.069c-0.391,0.922-0.823,1.826-1.326,2.689
				c-0.47,0.807-0.991,1.734-1.697,2.355c-0.874,0.768-1.084-0.236-1.348-1.047c-0.189-0.58-1.34-1.277-1.805-0.564
				c-0.701,1.074-1.301,2.194-1.867,3.345c-0.432,0.879-0.847,2.213-1.554,3.018c-0.162-0.244-0.283-0.629-0.382-0.767
				c-0.2-0.277-0.454-0.514-0.771-0.654c-0.742-0.328-1.499-0.159-2.109,0.335c-0.121,0.098-0.232,0.207-0.343,0.317
				c0.191-0.434,0.37-0.873,0.514-1.326c0.59-1.852,0.648-4.287-0.753-5.824c-2.484-2.726-6.468,0.799-5.932,3.799
				c0.109,0.612,1.233,1.236,1.229,0.29c-0.005-1.211,0.968-2.488,2.006-3.042c1.591-0.849,1.551,2.026,1.4,2.982
				c-0.444,2.826-2.389,5.174-3.132,7.922c-0.317,1.173,1.535,1.355,2.152,0.821c1.415-1.225,2.719-2.522,3.953-3.924
				c0.065-0.077,0.134-0.151,0.202-0.226c0.041,0.065,0.07,0.111,0.074,0.118c0.364,0.522,0.895,1.017,1.516,1.204
				c1.615,0.486,2.429-1.153,3.016-2.348c0.571-1.163,1.091-2.348,1.684-3.497c0.87,1.067,2.093,1.647,3.491,0.526
				c1.177-0.944,1.977-2.519,2.623-3.85c0.001-0.002,0.002-0.004,0.002-0.006c0.497,0.564,1.174,0.982,1.938,1.212
				c3.172,0.951,5.345-0.831,6.951-3.188c0.141,0.055,0.285,0.105,0.44,0.143c2.5,0.599,3.745-2.001,4.607-4.271
				c0.316,0.422,0.797,0.644,1.594,0.422c1.261-0.351,1.578-1.764,1.924-3.011c0.469,0.503,1.097,0.67,1.854-0.042
				c1.057-0.993,1.514-2.497,2.141-3.798c1.841,0.607,3.632-2.28,4.976-4.437c-0.066,0.255-0.125,0.473-0.153,0.608
				c-0.17,0.847-0.289,1.691-0.354,2.553c-0.117,1.559,0.165,4.263,2.246,4.393c1.517,0.095,2.059-1.869,2.404-3.003
				c0.472-1.554,1.075-3.053,1.52-4.601c1.047,1.904,2.798,3.505,4.153,1.653C130.951,152.187,129.967,151.284,129.481,151.721z"/>
			<path style="fill:#FAFAFA;" d="M109.777,209.695c-1.053,0.834-1.845,2.889-3.328,2.989c-0.331,0.023-0.604-0.053-0.835-0.186
				c0.534-0.793,0.935-1.68,1.152-2.5c0.415-1.562-0.188-3.568-2.166-3.425c-2.411,0.175-1.663,3.998-1.065,5.404
				c0.043,0.102,0.102,0.199,0.155,0.298c-0.068,0.074-0.136,0.151-0.205,0.22c-0.337,0.337-0.935,0.929-1.469,0.895
				c-0.686-0.043-0.813-1.01-0.934-1.555c-0.093-0.421-0.808-0.915-1.187-0.533c-0.929,0.937-1.234,2.469-1.871,3.593
				c-0.06,0.014-0.093,0.029-0.138,0.044c-0.054-0.2-0.194-0.451-0.262-0.572c-0.244-0.441-0.594-0.741-1.07-0.908
				c-0.278-0.098-0.613-0.07-0.76,0.221c-0.49,0.97-0.841,1.998-1.259,3c-0.215,0.515-0.438,1.031-0.717,1.515
				c-0.17,0.296-0.47,0.568-0.713,0.843c-0.011-0.165-0.026-0.331-0.022-0.472c0.019-0.612,0.103-1.227,0.018-1.838
				c-0.069-0.498-1.074-1.203-1.45-0.608c-1.973,3.125-3.963,6.499-6.712,9.014c-0.324,0.296-1.206,1.197-1.713,1.111
				c-0.619-0.104-0.274-1.898-0.126-2.421c0.441-1.559,1.356-2.938,2.185-4.311c0.595-0.986,1.307-2.425,2.419-2.955
				c-0.09,0.895-0.538,1.716-1.23,2.35c-0.371,0.34,0.157,1.276,0.615,0.918c1.239-0.971,1.95-2.52,1.965-4.082
				c0.004-0.38-0.432-0.777-0.784-0.826c-2.79-0.39-4.391,3.357-5.508,5.347c-1.05,1.871-2.625,5.216-0.575,7.022
				c2.73,2.405,6.599-3.702,7.811-5.404c0.549-0.771,1.098-1.552,1.621-2.35c0.106,0.783,0.422,1.416,1.29,1.503
				c0.993,0.1,1.772-1.08,2.202-1.807c0.697-1.179,1.105-2.496,1.629-3.759c0.104,0.276,0.209,0.555,0.319,0.663
				c0.405,0.396,0.915,0.488,1.443,0.296c1.278-0.463,1.408-1.852,1.87-2.984c0.638,1.076,1.682,1.774,3.063,1.091
				c0.481-0.238,0.921-0.587,1.323-0.993c0.715,0.564,1.609,0.886,2.522,0.727c1.683-0.294,3.161-2.161,3.31-3.787
				C110.618,210.174,110.186,209.371,109.777,209.695z M104.542,210.607c-0.128-0.596-0.384-2.078,0.281-2.495
				c0.648-0.406,0.679,0.224,0.642,0.652c-0.066,0.755-0.389,1.538-0.821,2.247C104.604,210.875,104.57,210.74,104.542,210.607z"/>
			<path style="fill:#FAFAFA;" d="M132.67,201.478c-0.605-0.473-1.037-1.361-1.137-2.121c-0.097-0.735,0.058-1.487-0.067-2.224
				c-0.187-1.099-1.281-1.932-2.353-1.344c-0.955,0.524-1.619,1.656-2.176,2.549c-0.268,0.43-0.522,0.866-0.772,1.305
				c-0.341-0.475-1.135-0.737-1.54-0.202c-0.561,0.743-1.07,1.521-1.555,2.313c-0.018-0.097-0.023-0.195-0.047-0.291
				c-0.331-1.338-1.42-2.302-2.85-2.157c-1.657,0.168-3.103,1.577-3.779,3.029c-0.311,0.666-0.531,1.443-0.429,2.184
				c0.058,0.424,0.286,0.809,0.726,0.94c0.214,0.064,0.446,0.064,0.625-0.083c0.096-0.078,0.338-0.438,0.191-0.568
				c-0.224-0.199,0.391-1.379,0.496-1.566c0.284-0.509,0.636-0.996,1.062-1.395c0.342-0.32,0.735-0.614,1.176-0.782
				c0.14-0.053,0.69-0.181,0.725-0.161c0.422,0.235,0.377,1.368,0.386,1.764c0.018,0.786-0.053,1.572-0.024,2.358
				c0.028,0.759,1.367,1.346,1.798,0.598c0.753-1.307,1.469-2.633,2.281-3.902c0.01,0.019,0.017,0.039,0.027,0.058
				c0.232,0.435,1.215,0.884,1.534,0.283c0.804-1.515,1.57-3.394,2.864-4.576c0.021,0.493,0.044,1.096,0.048,1.183
				c0.061,1.421,0.786,2.975,1.922,3.851C132.671,203.192,133.547,202.163,132.67,201.478z"/>
		</g>
	</g>
</g>
<g id="Desk_3_">
	<g id="Desk">
		<g id="Desk_2_">
			<g id="Desk_1_">
				<g id="XMLID_1252_">
					<polygon id="XMLID_1288_" style="fill:#27DEBF;" points="302.798,331.914 227.213,288.275 352.709,215.653 428.293,259.292 
											"/>
				</g>
				<g id="XMLID_1247_" style="opacity:0.2;">
					<polygon id="XMLID_1248_" points="302.798,331.914 227.213,288.275 352.709,215.653 428.293,259.292 					"/>
				</g>
				<g id="XMLID_1245_">
					<polygon id="XMLID_1246_" style="fill:#27DEBF;" points="227.213,288.275 227.214,375.552 231.192,377.849 231.192,372.318 
						298.82,411.363 298.82,416.894 302.798,419.191 302.798,331.914 					"/>
				</g>
				<g id="XMLID_1194_" style="opacity:0.45;">
					<polygon id="XMLID_1242_" points="227.213,288.275 227.214,375.552 231.192,377.849 231.192,372.318 298.82,411.363 
						298.82,416.894 302.798,419.191 302.798,331.914 					"/>
				</g>
				<g id="XMLID_1192_">
					<polygon id="XMLID_1193_" style="fill:#27DEBF;" points="231.192,377.849 235.17,375.552 235.17,374.615 231.192,372.318 					
						"/>
				</g>
				<g id="XMLID_908_" style="opacity:0.6;">
					<polygon id="XMLID_1481_" points="231.192,377.849 235.17,375.552 235.17,374.615 231.192,372.318 					"/>
				</g>
				<g id="XMLID_1188_">
					<polygon id="XMLID_1190_" style="fill:#27DEBF;" points="302.798,419.191 306.776,416.894 306.776,411.363 424.316,343.335 
						424.316,348.866 428.294,346.569 428.293,259.292 302.798,331.914 					"/>
				</g>
				<g id="XMLID_1184_" style="opacity:0.3;">
					<polygon id="XMLID_1186_" points="302.798,419.191 306.776,416.894 306.776,411.363 424.316,343.335 424.316,348.866 
						428.294,346.569 428.293,259.292 302.798,331.914 					"/>
				</g>
				<g id="XMLID_1171_">
					<polygon id="XMLID_1180_" style="fill:#27DEBF;" points="424.316,348.866 420.338,346.569 420.337,345.632 424.316,343.335 
											"/>
				</g>
				<g id="XMLID_1482_" style="opacity:0.6;">
					<polygon id="XMLID_1483_" points="424.316,348.866 420.338,346.569 420.337,345.632 424.316,343.335 					"/>
				</g>
			</g>
		</g>
		<g id="Things">
			<g id="Sheets_2_">
				<g id="XMLID_644_" style="opacity:0.15;">
					<path id="XMLID_645_" d="M275.19,270.491l26.862,15.509c0.418,0.241,1.095,0.241,1.512,0l19.768-11.413
						c0.418-0.241,0.418-0.632,0-0.873l-26.862-15.509c-0.418-0.241-1.095-0.241-1.512,0l-19.768,11.413
						C274.772,269.859,274.772,270.25,275.19,270.491z"/>
				</g>
				<g id="XMLID_638_" style="opacity:0.15;">
					<path id="XMLID_640_" d="M275.19,273.261l26.862,15.509c0.418,0.241,1.095,0.241,1.512,0l19.768-11.413
						c0.418-0.241,0.418-0.632,0-0.873l-26.862-15.509c-0.418-0.241-1.095-0.241-1.512,0l-19.768,11.413
						C274.772,272.629,274.772,273.02,275.19,273.261z"/>
				</g>
				<g id="XMLID_5319_">
					<g id="XMLID_629_">
						<path id="XMLID_636_" style="fill:#EBEBEB;" d="M275.19,271.876l26.862,15.509c0.418,0.241,1.095,0.241,1.512,0l19.768-11.413
							c0.418-0.241,0.418-0.632,0-0.873L296.47,259.59c-0.418-0.241-1.095-0.241-1.512,0l-19.768,11.413
							C274.772,271.244,274.772,271.635,275.19,271.876z"/>
					</g>
					<g id="XMLID_5322_">
						<path id="XMLID_5323_" style="fill:#E0E0E0;" d="M294.958,259.59l-18.771,10.838l25.865,14.933
							c0.418,0.241,1.095,0.241,1.513,0l18.772-10.838L296.47,259.59C296.052,259.349,295.375,259.349,294.958,259.59z"/>
					</g>
					<g id="XMLID_5320_">
						<path id="XMLID_5321_" style="fill:#FAFAFA;" d="M275.19,269.145l26.862,15.509c0.418,0.241,1.095,0.241,1.512,0
							l19.768-11.413c0.418-0.241,0.418-0.632,0-0.873l-26.862-15.509c-0.418-0.241-1.095-0.241-1.512,0l-19.768,11.413
							C274.772,268.513,274.772,268.904,275.19,269.145z"/>
					</g>
				</g>
			</g>
			<g id="Pencil_10_">
				<path id="Shadow_6_" style="opacity:0.15;" d="M323.436,292.95c-0.856,0.436,1.307,1.96,2.377,1.372l18.748-10.978l2.251-2.375
					c0.106-0.112-0.005-0.291-0.152-0.246l-4.342,1.325L323.436,292.95z"/>
				<g id="XMLID_5266_">
					<g id="XMLID_5268_">
						<path id="XMLID_5276_" style="fill:#FFA8A7;" d="M342.491,280.378l3.994-0.782c0.116-0.023,0.195,0.115,0.117,0.204
							l-2.71,3.069L342.491,280.378z"/>
						<path id="XMLID_5275_" style="fill:#263238;" d="M346.602,279.799c0.079-0.089,0-0.226-0.117-0.204l-0.78,0.153l0,0
							c0.218,0.135,0.343,0.381,0.322,0.638l-0.006,0.07L346.602,279.799z"/>
						<path id="XMLID_5274_" style="fill:#455A64;" d="M328.997,291.41l0.327-0.188l0.395-0.225l14.172-8.129
							c0.148-0.434,0.076-0.909-0.111-1.325c-0.283-0.634-0.833-1.134-1.289-1.164l-14.164,8.124l-0.754,0.432
							C328.077,288.684,329.499,291.149,328.997,291.41z"/>
						<path id="XMLID_5273_" style="fill:#EBEBEB;" d="M330.244,290.7l0.729-0.42c0.215-0.115,0.092-0.643-0.16-1.19
							c-0.333-0.727-0.989-1.432-1.274-1.28L329,288.118l-0.19,0.114c0.286-0.151,0.942,0.552,1.275,1.28
							c0.241,0.524,0.363,1.035,0.18,1.173l-0.002,0.001C330.258,290.693,330.252,290.697,330.244,290.7z"/>
						<path id="XMLID_5272_" style="fill:#27DEBF;" d="M330.425,290.594c0.501-0.265-0.933-2.734-1.434-2.469l-0.731,0.418
							c0.501-0.265,1.934,2.203,1.433,2.468L330.425,290.594z"/>
						<path id="XMLID_5271_" style="fill:#EBEBEB;" d="M328.997,291.41l0.722-0.412c0.493-0.257-0.87-2.651-1.392-2.493
							c-0.009,0.002-0.02,0.007-0.03,0.012l-0.724,0.421C328.077,288.684,329.499,291.149,328.997,291.41z"/>
						<path id="XMLID_5270_" style="opacity:0.15;" d="M346.62,279.665l-0.135-0.069l-2.898,1.585L328.6,289.78
							c-0.028-0.045-0.051-0.048-0.07-0.017c0.426,0.664,0.748,1.5,0.467,1.646l0.327-0.188l0.395-0.225l14.172-8.129l0-0.001
							l2.71-3.068C346.638,279.758,346.64,279.706,346.62,279.665z"/>
						<path id="XMLID_5269_" style="fill:#F28F8F;" d="M325.935,293.162l3.062-1.752c0.215-0.111,0.096-0.635-0.152-1.179
							c-0.331-0.729-0.984-1.439-1.272-1.294c-0.002,0-0.002,0-0.004,0.001l-3.071,1.759c-0.61,0.352-0.049,1.677,0.631,2.269
							C325.383,293.189,325.667,293.288,325.935,293.162z"/>
					</g>
					<path id="XMLID_5267_" style="opacity:0.1;" d="M326.118,292.212c-0.176-0.69-0.735-1.367-1.249-1.512
						c-0.189-0.053-0.345-0.027-0.458,0.062c-0.461,0.428,0.076,1.643,0.719,2.203c0.248,0.219,0.525,0.317,0.789,0.202
						C326.149,293.033,326.237,292.68,326.118,292.212z"/>
				</g>
			</g>
			<g id="Pencil_2_">
				<path id="Shadow_13_" style="opacity:0.15;" d="M334.899,293.104c-0.869,0.443,1.326,1.989,2.412,1.393l19.024-11.14
					l2.284-2.409c0.107-0.113-0.005-0.295-0.154-0.25l-4.406,1.345L334.899,293.104z"/>
				<g id="XMLID_646_">
					<g id="XMLID_660_">
						<path id="XMLID_680_" style="fill:#FFA8A7;" d="M354.233,280.347l4.053-0.794c0.118-0.023,0.198,0.117,0.118,0.207
							l-2.75,3.114L354.233,280.347z"/>
						<path id="XMLID_678_" style="fill:#263238;" d="M358.405,279.759c0.08-0.09,0-0.23-0.118-0.207l-0.791,0.155l0,0
							c0.222,0.137,0.348,0.387,0.327,0.647l-0.006,0.071L358.405,279.759z"/>
						<path id="XMLID_677_" style="fill:#455A64;" d="M340.541,291.54l0.332-0.19l0.401-0.228l14.381-8.249
							c0.15-0.44,0.077-0.922-0.113-1.344c-0.287-0.643-0.846-1.151-1.308-1.181l-14.372,8.244l-0.765,0.439
							C339.608,288.775,341.05,291.276,340.541,291.54z"/>
						<path id="XMLID_676_" style="fill:#EBEBEB;" d="M341.806,290.82l0.74-0.426c0.219-0.116,0.093-0.653-0.162-1.208
							c-0.338-0.738-1.003-1.452-1.293-1.299l-0.546,0.313l-0.193,0.115c0.29-0.154,0.956,0.561,1.294,1.299
							c0.244,0.532,0.368,1.05,0.183,1.19l-0.002,0.001C341.821,290.813,341.814,290.817,341.806,290.82z"/>
						<path id="XMLID_674_" style="fill:#27DEBF;" d="M341.99,290.712c0.508-0.269-0.947-2.774-1.455-2.505l-0.742,0.424
							c0.508-0.269,1.962,2.236,1.454,2.505L341.99,290.712z"/>
						<path id="XMLID_669_" style="fill:#EBEBEB;" d="M340.541,291.54l0.733-0.418c0.501-0.261-0.883-2.69-1.412-2.53
							c-0.01,0.002-0.02,0.007-0.03,0.012l-0.735,0.427C339.608,288.775,341.05,291.276,340.541,291.54z"/>
						<path id="XMLID_664_" style="opacity:0.15;" d="M358.423,279.623l-0.137-0.07l-2.941,1.609l-15.207,8.726
							c-0.028-0.045-0.052-0.048-0.071-0.017c0.432,0.674,0.759,1.522,0.474,1.67l0.332-0.19l0.401-0.228l14.381-8.249l0-0.001
							l2.75-3.114C358.442,279.717,358.443,279.665,358.423,279.623z"/>
						<path id="XMLID_661_" style="fill:#F28F8F;" d="M337.434,293.318l3.107-1.778c0.218-0.113,0.097-0.645-0.154-1.197
							c-0.336-0.74-0.998-1.46-1.29-1.313c-0.002,0-0.002,0-0.004,0.001l-3.117,1.785c-0.619,0.357-0.05,1.702,0.641,2.302
							C336.874,293.346,337.161,293.446,337.434,293.318z"/>
					</g>
					<path id="XMLID_659_" style="opacity:0.1;" d="M337.62,292.355c-0.178-0.7-0.746-1.387-1.267-1.534
						c-0.191-0.054-0.35-0.027-0.465,0.063c-0.467,0.434,0.077,1.668,0.73,2.236c0.252,0.222,0.533,0.322,0.801,0.205
						C337.651,293.188,337.741,292.829,337.62,292.355z"/>
				</g>
			</g>
			<g id="Apple">
				<path id="XMLID_4824_" style="opacity:0.15;" d="M296.41,314.181c2.545,1.972,7.426,2.418,10.903,0.997
					c3.477-1.421,4.218-4.173,1.656-6.147c-2.562-1.974-7.443-2.42-10.903-0.997C294.606,309.458,293.865,312.21,296.41,314.181z"/>
				<g id="XMLID_600_">
					<g id="XMLID_4538_">
						<path id="XMLID_4803_" style="fill:#27DEBF;" d="M299.835,298.144c-1.446,0.083-3.962,0.277-5.528,3.5
							c-1.784,3.671,0,8.241,2.739,10.168c3.441,2.421,8.836,2.566,12.013-0.328c3.513-3.2,3.771-9.268,1.374-11.921
							c-2.398-2.653-6.087-1.901-7.049-1.493C301.94,298.682,300.961,298.079,299.835,298.144z"/>
						<path id="XMLID_610_" style="opacity:0.6;fill:#FFFFFF;" d="M299.835,298.144c-1.446,0.083-3.962,0.277-5.528,3.5
							c-1.784,3.671,0,8.241,2.739,10.168c3.441,2.421,8.836,2.566,12.013-0.328c3.513-3.2,3.771-9.268,1.374-11.921
							c-2.398-2.653-6.087-1.901-7.049-1.493C301.94,298.682,300.961,298.079,299.835,298.144z"/>
						<path id="XMLID_4792_" style="opacity:0.1;" d="M307.068,310.739c-3.745,2.048-8.859,1.407-11.957-0.964
							c0.545,0.822,1.206,1.524,1.935,2.037c3.441,2.421,8.836,2.566,12.013-0.328c2.664-2.427,3.453-6.499,2.635-9.484
							C311.837,302.837,311.19,308.486,307.068,310.739z"/>
						<path id="XMLID_4762_" style="opacity:0.2;fill:#FFFFFF;" d="M298.335,299.43c-0.933-0.08-2.287,0.747-2.996,2.017
							c-0.88,1.578-0.991,3.805-0.717,5.426c0.552,3.267,3.712,4.982,4.017,4.704c0.306-0.278-1.989-2.413-0.726-5.664
							C299.195,302.612,299.863,299.561,298.335,299.43z"/>
						<path id="XMLID_4662_" style="opacity:0.2;fill:#FFFFFF;" d="M297.614,299.957c-0.95,0.321-2.05,1.84-2.337,2.915
							c-0.287,1.075-0.146,1.806,0,1.932c0.263,0.226,2.192-1.659,2.819-2.505C298.985,301.099,299.145,299.44,297.614,299.957z"/>
						<path id="XMLID_4765_" style="fill:#27DEBF;" d="M301.339,300.94c-0.507-0.405-0.984-0.608-1.237,0
							c-0.253,0.608,1.098,1.565,2.594,1.127c1.496-0.438,2.014-1.413,1.981-1.905c0,0-0.675,1.069-1.678,1.193
							C302.305,301.439,301.601,301.15,301.339,300.94z"/>
						<path id="XMLID_4552_" style="opacity:0.1;" d="M301.339,300.94c-0.507-0.405-0.984-0.608-1.237,0
							c-0.253,0.608,1.098,1.565,2.594,1.127c1.496-0.438,2.014-1.413,1.981-1.905c0,0-0.675,1.069-1.678,1.193
							C302.305,301.439,301.601,301.15,301.339,300.94z"/>
					</g>
					<g id="XMLID_3232_">
						<path id="XMLID_4536_" style="fill:#37474F;" d="M302.695,301.684c0,0,0.004-2.174-0.675-4.09
							c-0.679-1.916-1.874-3.259-2.199-3.407c-0.325-0.148-0.871-0.257-1.638-0.246c-0.767,0.01-1.682,0.527-1.431,0.822
							c0.251,0.295,1.358,0.516,2.701,1.771c1.343,1.254,2.625,3.693,2.627,5.15C302.08,301.684,302.352,301.876,302.695,301.684z"
							/>
						<path id="XMLID_4511_" style="fill:#455A64;" d="M299.766,294.165c-0.025-0.01-0.048-0.021-0.074-0.03
							c-0.003-0.001-0.005-0.002-0.008-0.003c-0.332-0.118-0.832-0.2-1.499-0.191c-0.567,0.008-1.212,0.291-1.411,0.558
							c-0.052,0.111,0.116,0.26,0.802,0.356c0.689,0.097,1.404,0.035,2.018-0.189C299.892,294.558,300.008,294.293,299.766,294.165z
							"/>
						<path id="XMLID_4510_" style="opacity:0.1;" d="M301.697,299.267c-0.605-1.729-2.437-3.17-3.693-3.807v0
							c0.42,0.242,0.915,0.575,1.449,1.074c1.343,1.254,2.625,3.693,2.627,5.15c0,0,0.272,0.192,0.616,0c0,0,0-0.524-0.079-1.282
							C302.578,301.107,302.254,300.861,301.697,299.267z"/>
					</g>
					<g id="XMLID_601_">
						<path id="XMLID_606_" style="fill:#27DEBF;" d="M302.332,298.672c0.928,0.185,2.466-0.152,3.346-1.31
							c1.057-1.391,0.368-3.2,0.368-3.2s-1.658-0.376-2.947,0.923C302.158,296.033,302.03,297.866,302.332,298.672z"/>
						<path id="XMLID_605_" style="opacity:0.1;" d="M302.332,298.672c0.928,0.185,2.466-0.152,3.346-1.31
							c1.057-1.391,0.368-3.2,0.368-3.2s-1.658-0.376-2.947,0.923C302.158,296.033,302.03,297.866,302.332,298.672z"/>
						<path id="XMLID_604_" style="fill:#27DEBF;" d="M306.046,294.162c0,0-1.658-0.376-2.947,0.923
							c-0.941,0.948-1.069,2.781-0.766,3.586C303.192,295.995,306.046,294.162,306.046,294.162z"/>
					</g>
				</g>
			</g>
			<g id="Laptop_4_">
				<path style="opacity:0.15;" d="M386.357,241.253c-6.43-3.712-31.494-18.125-31.494-18.125c0,0-42.452,24.488-50.588,29.181
					c-0.739,0.426-0.74,1.118-0.001,1.545l30.096,17.318c0.739,0.427,1.937,0.427,2.677,0.002l49.307-28.379
					C387.094,242.37,387.096,241.68,386.357,241.253z"/>
				<g id="XMLID_602_">
					<g id="XMLID_728_">
						<path id="XMLID_729_" style="fill:#EBEBEB;" d="M304.534,249.269v0.963c0,0.972,0.519,1.872,1.358,2.358l25.948,14.932
							c0.42,0.243,0.891,0.362,1.363,0.362c0.467,0,0.939-0.119,1.358-0.362l47.601-27.481c0.843-0.486,1.363-1.386,1.363-2.358
							v-0.662l-50.321,29.053L304.534,249.269z"/>
					</g>
					<g id="XMLID_1012_">
						<path id="XMLID_1013_" style="fill:#FAFAFA;" d="M383.523,237.021l-28.224-16.293c-0.502-0.29-1.12-0.29-1.622,0L304.714,249
							c-0.24,0.139-0.24,0.486,0,0.624l28.488,16.45L383.523,237.021z"/>
					</g>
					<g id="XMLID_711_">
						<polygon id="XMLID_713_" style="fill:#E0E0E0;" points="332.942,263.678 317.719,254.899 362.231,229.2 377.533,237.934 
													"/>
					</g>
					<g id="XMLID_1007_">
						<polygon id="XMLID_709_" style="fill:#E0E0E0;" points="325.46,239.255 325.741,239.417 333.202,243.724 346.471,236.063 
							346.747,235.906 339.005,231.437 						"/>
					</g>
					<g id="XMLID_1005_">
						<polygon id="XMLID_1006_" style="fill:#E6E6E6;" points="325.741,239.417 333.202,243.724 346.471,236.063 339.005,231.756 
													"/>
					</g>
					<g id="XMLID_696_">
						<path id="XMLID_706_" style="fill:#EBEBEB;" d="M333.202,266.074v1.81c0.467,0,0.939-0.119,1.358-0.362l47.601-27.481
							c0.843-0.486,1.363-1.386,1.363-2.358v-0.662L333.202,266.074z"/>
					</g>
					<g id="XMLID_1000_">
						<path id="XMLID_1001_" style="fill:#E0E0E0;" d="M333.202,266.074v1.81c0.467,0,0.939-0.119,1.358-0.362l47.601-27.481
							c0.843-0.486,1.363-1.386,1.363-2.358v-0.662L333.202,266.074z"/>
					</g>
					<g id="XMLID_695_">
						<path id="XMLID_998_" style="fill:#27DEBF;" d="M333.969,266.475c0.901,0.348,1.925,0.281,2.778-0.215l47.391-27.361
							c0.834-0.481,1.405-1.305,1.567-2.253l5.189-30.94c0.029-0.176,0.043-0.353,0.043-0.529c0-0.862-0.343-1.687-0.953-2.292
							l-49.249,28.438c-0.615,0.357-1.039,0.967-1.158,1.667L333.969,266.475z"/>
					</g>
					<g id="XMLID_692_" style="opacity:0.7;">
						<path id="XMLID_693_" style="fill:#FFFFFF;" d="M333.969,266.475c0.901,0.348,1.925,0.281,2.778-0.215l47.391-27.361
							c0.834-0.481,1.405-1.305,1.567-2.253l5.189-30.94c0.029-0.176,0.043-0.353,0.043-0.529c0-0.862-0.343-1.687-0.953-2.292
							l-49.249,28.438c-0.615,0.357-1.039,0.967-1.158,1.667L333.969,266.475z"/>
					</g>
					<g id="XMLID_685_">
						<path id="XMLID_688_" style="fill:#FAFAFA;" d="M333.202,266.075l0.324,0.186c0.143,0.081,0.291,0.153,0.443,0.215
							l5.608-33.484c0.119-0.7,0.543-1.31,1.158-1.667l49.249-28.438c-0.19-0.191-0.414-0.357-0.657-0.5l-49.349,28.491
							c-0.615,0.357-1.039,0.967-1.158,1.667L333.202,266.075z"/>
					</g>
					<g id="XMLID_648_">
						<path id="XMLID_683_" style="fill:#27DEBF;" d="M360.66,237.914c0.348-2.071,2.486-4.823,4.777-6.145
							c2.291-1.322,3.866-0.715,3.519,1.356c-0.347,2.072-2.486,4.823-4.777,6.145C361.888,240.592,360.313,239.985,360.66,237.914z
							"/>
					</g>
				</g>
			</g>
			<g id="Books">
				<path id="Shadow_18_" style="opacity:0.15;" d="M382.172,283.417l-23.329-13.469c-0.333-0.193-0.333-0.505,0-0.697
					l36.541-21.097c0.333-0.193,0.874-0.193,1.207,0l23.329,13.469c0.333,0.192,0.333,0.504,0,0.697l-36.541,21.096
					C383.046,283.609,382.506,283.609,382.172,283.417z"/>
				<g id="Book_2_">
					<g id="XMLID_5431_">
						<polygon id="XMLID_5436_" points="362.555,269.25 382.783,280.782 416.199,261.605 395.973,250.072 						"/>
						<path id="XMLID_5435_" style="fill:#F5F5F5;" d="M383.013,279.905l-19.512-11.198c0.51-1.446,0.472-3.134-0.105-5.06
							l19.387,11.079C382.783,274.727,383.153,275.948,383.013,279.905z"/>
						<path id="XMLID_5434_" style="fill:#263238;" d="M381.787,273.146c1.035,0.594,1.875,2.039,1.875,3.228v3.771
							c0,1.189-0.839,1.67-1.875,1.076l-19.23-11.036l-0.002-0.934l18.973,10.819c0.621,0.357,1.124,0.068,1.124-0.646l-0.018-3.495
							c-0.001-0.713-0.505-1.58-1.126-1.937l-18.951-10.825v-1.059L381.787,273.146z"/>
						<path id="XMLID_5433_" style="fill:#455A64;" d="M362.557,262.112l33.417-19.178l19.228,11.035
							c1.035,0.594,1.875,2.04,1.875,3.228l0.001,3.772c-0.001,0.592-0.209,1.009-0.55,1.205l-33.417,19.177
							c0.341-0.196,0.549-0.613,0.55-1.205l0.003-3.774c0-1.188-0.84-2.634-1.875-3.228L362.557,262.112z"/>
						<path id="XMLID_5432_" style="fill:#37474F;" d="M383.115,274.536c0.339,0.584,0.549,1.243,0.549,1.836l-0.003,3.774
							c-0.001,0.592-0.209,1.009-0.55,1.205l33.417-19.177c0.341-0.196,0.549-0.613,0.55-1.205l-0.001-3.772
							c0-0.594-0.21-1.252-0.549-1.836L383.115,274.536z"/>
					</g>
				</g>
				<g id="Book_1_">
					<g id="XMLID_295_">
						<polygon id="XMLID_597_" style="fill:#27DEBF;" points="364.542,259.51 383.296,270.201 414.277,252.421 395.525,241.729 
													"/>
						<polygon id="XMLID_580_" style="opacity:0.35;" points="364.542,259.51 383.296,270.201 414.277,252.421 395.525,241.729 
													"/>
						<path id="XMLID_585_" style="fill:#FFFFFF;" d="M383.509,269.388l-18.09-10.382c0.473-1.341,0.437-2.906-0.098-4.691
							l17.975,10.272C383.296,264.587,383.639,265.72,383.509,269.388z"/>
						<path id="XMLID_584_" style="fill:#27DEBF;" d="M382.373,263.121c0.96,0.551,1.738,1.891,1.738,2.993v3.496
							c0,1.102-0.778,1.548-1.738,0.998l-17.829-10.232l-0.002-0.866l17.591,10.031c0.576,0.33,1.042,0.063,1.042-0.599l-0.016-3.24
							c0-0.661-0.468-1.465-1.044-1.796l-17.57-10.036v-0.982L382.373,263.121z"/>
						<path id="XMLID_583_" style="opacity:0.2;" d="M382.373,263.121c0.96,0.551,1.738,1.891,1.738,2.993v3.496
							c0,1.102-0.778,1.548-1.738,0.998l-17.829-10.232l-0.002-0.866l17.591,10.031c0.576,0.33,1.042,0.063,1.042-0.599l-0.016-3.24
							c0-0.661-0.468-1.465-1.044-1.796l-17.57-10.036v-0.982L382.373,263.121z"/>
						<path id="XMLID_581_" style="fill:#27DEBF;" d="M364.544,252.891l30.982-17.78l17.827,10.231
							c0.959,0.551,1.738,1.891,1.738,2.992l0.001,3.497c-0.001,0.549-0.193,0.936-0.51,1.117l-30.982,17.78
							c0.316-0.182,0.509-0.568,0.51-1.117l0.003-3.499c0-1.101-0.779-2.442-1.738-2.992L364.544,252.891z"/>
						<path id="XMLID_598_" style="opacity:0.3;fill:#FFFFFF;" d="M364.544,252.891l30.982-17.78l17.827,10.231
							c0.959,0.551,1.738,1.891,1.738,2.992l0.001,3.497c-0.001,0.549-0.193,0.936-0.51,1.117l-30.982,17.78
							c0.316-0.182,0.509-0.568,0.51-1.117l0.003-3.499c0-1.101-0.779-2.442-1.738-2.992L364.544,252.891z"/>
						<path id="XMLID_579_" style="fill:#27DEBF;" d="M383.604,264.41c0.315,0.542,0.509,1.152,0.509,1.703l-0.003,3.499
							c-0.001,0.549-0.194,0.936-0.51,1.117l30.982-17.78c0.316-0.181,0.509-0.568,0.51-1.117l-0.001-3.497
							c0-0.55-0.195-1.161-0.509-1.703L383.604,264.41z"/>
						<path id="XMLID_547_" style="opacity:0.1;" d="M383.604,264.41c0.315,0.542,0.509,1.152,0.509,1.703l-0.003,3.499
							c-0.001,0.549-0.194,0.936-0.51,1.117l30.982-17.78c0.316-0.181,0.509-0.568,0.51-1.117l-0.001-3.497
							c0-0.55-0.195-1.161-0.509-1.703L383.604,264.41z"/>
					</g>
				</g>
			</g>
			<g id="Coffee">
				<path id="Shadow_25_" style="opacity:0.15;" d="M266.907,284.955c3.92,2.171,3.92,5.69,0,7.861
					c-3.921,2.171-10.277,2.171-14.197,0c-3.92-2.171-3.92-5.69,0-7.861C256.63,282.784,262.986,282.784,266.907,284.955z"/>
				<g id="Coffee_3_">
					<g id="XMLID_1326_">
						<path id="XMLID_5939_" style="fill:#263238;" d="M253.72,272.111c3.542-1.202,9.137-1.057,12.495,0.323
							c3.359,1.38,3.305,3.475-0.121,4.679c-3.426,1.204-9.02,1.06-12.495-0.323C250.123,275.407,250.178,273.312,253.72,272.111z"
							/>
					</g>
					<g id="XMLID_1324_">
						<path id="XMLID_1325_" style="fill:#FAFAFA;" d="M251.034,267.787l17.998,0.485l-1.912,21.171l-0.017,0
							c-0.105,0.77-0.846,1.513-2.236,2.068c-2.964,1.182-7.798,1.057-10.797-0.279c-1.407-0.626-2.134-1.408-2.202-2.182l-0.018,0
							L251.034,267.787z"/>
					</g>
					<g id="XMLID_5926_">
						<path id="XMLID_1323_" style="fill:#EBEBEB;" d="M269.032,268.272l-0.388,4.3c-0.421,0.276-0.922,0.536-1.524,0.767
							c-3.933,1.511-10.352,1.345-14.336-0.371c-0.172-0.074-0.316-0.154-0.471-0.231c-0.634-0.319-1.113-0.665-1.113-0.665
							l-0.165-4.285L269.032,268.272z"/>
					</g>
					<g id="XMLID_988_">
						<g id="XMLID_1321_">
							<path id="XMLID_1322_" style="fill:#37474F;" d="M249.88,268.384l0.084-3.242l2.098,0.054c0.284-0.14,0.593-0.274,0.933-0.4
								c4.067-1.508,10.486-1.342,14.337,0.37c0.321,0.143,0.604,0.293,0.87,0.447l2.038,0.053l-0.084,3.242l0,0
								c-0.027,1.056-1.028,2.087-2.995,2.843c-3.934,1.511-10.352,1.345-14.336-0.371
								C250.831,270.523,249.852,269.44,249.88,268.384z"/>
						</g>
						<g id="XMLID_1290_">
							<path id="XMLID_1320_" style="fill:#455A64;" d="M253.058,262.302c4.068-1.508,10.486-1.342,14.337,0.37
								c3.85,1.712,3.783,4.326-0.151,5.837c-3.934,1.511-10.352,1.345-14.336-0.371
								C248.923,266.423,248.991,263.81,253.058,262.302z"/>
						</g>
						<g id="XMLID_989_">
							<path style="fill:#37474F;" d="M251.847,264.411l-0.007,0l0.719-2.657l5.148,0.133c1.678-0.165,3.471-0.119,5.12,0.132
								l4.997,0.129l0.583,2.69l-0.009,0c0.298,0.98-0.498,1.977-2.397,2.675c-3.241,1.191-8.533,1.054-11.818-0.305
								C252.257,266.412,251.488,265.374,251.847,264.411z"/>
							<g id="XMLID_1157_">
								<path id="XMLID_1159_" style="fill:#455A64;" d="M254.845,260.104c3.077-1.03,7.937-0.904,10.855,0.28
									c2.918,1.185,2.872,2.982-0.104,4.014c-2.975,1.033-7.835,0.907-10.855-0.28
									C251.722,262.931,251.768,261.134,254.845,260.104z"/>
							</g>
							<g id="XMLID_1155_">
								<path id="XMLID_1156_" style="fill:#263238;" d="M253.564,262.082c0.004,0.042,0.079,0.187,0.328,0.388
									c0.233,0.186,0.623,0.423,1.234,0.665c1.332,0.52,3.187,0.853,5.086,0.902c1.899,0.049,3.736-0.183,5.041-0.635
									c0.612-0.211,0.998-0.433,1.225-0.607c0.253-0.194,0.325-0.34,0.326-0.377c0.002-0.074-0.25-0.55-1.498-1.057
									c-1.28-0.519-3.103-0.845-5.002-0.895c-1.899-0.049-3.768,0.182-5.126,0.638C253.9,261.532,253.572,261.988,253.564,262.082
									z"/>
							</g>
							<g id="XMLID_999_">
								<path id="XMLID_1154_" style="fill:#37474F;" d="M253.892,262.471c0.233,0.186,0.623,0.423,1.234,0.665
									c1.332,0.52,3.187,0.853,5.086,0.902c1.899,0.049,3.736-0.183,5.041-0.635c0.612-0.211,0.998-0.433,1.225-0.607
									c-0.217-0.185-0.591-0.427-1.191-0.669c-1.28-0.519-3.103-0.846-5.002-0.895c-1.899-0.049-3.768,0.182-5.125,0.638
									C254.535,262.081,254.134,262.292,253.892,262.471z"/>
							</g>
							<g id="XMLID_991_" style="opacity:0.5;">
								<path id="XMLID_994_" d="M256.944,262.618c-0.437-0.263-0.975-0.38-1.2-0.261c-0.225,0.119-0.053,0.432,0.384,0.698
									c0.437,0.266,0.975,0.383,1.2,0.261C257.553,263.194,257.382,262.882,256.944,262.618z"/>
							</g>
						</g>
					</g>
					<g id="XMLID_970_">
						<path id="XMLID_987_" style="fill:#455A64;" d="M267.986,282.607c-0.021,0.798-0.84,1.575-2.454,2.142
							c-3.227,1.135-8.497,0.998-11.772-0.304c-1.634-0.65-2.44-1.467-2.422-2.264l-0.31-7.798
							c-0.022,0.847,0.834,1.716,2.571,2.407c3.475,1.383,9.069,1.527,12.495,0.323c1.713-0.602,2.583-1.427,2.604-2.274
							L267.986,282.607z"/>
					</g>
					<g id="XMLID_846_">
						<g id="XMLID_965_">
							<path id="XMLID_968_" style="fill:#27DEBF;" d="M262.48,282.925c0.307-0.392,0.484-0.878,0.735-1.303
								c0.501-0.848,1.199-1.415,2.082-1.74c0.118-0.043,0.261,0.009,0.314,0.123c0.419,0.913,0.115,2.167-0.825,3.06
								c-0.931,0.884-2.187,1.132-3.076,0.685c-0.05-0.025-0.062-0.125-0.02-0.148C261.986,283.441,262.25,283.219,262.48,282.925z"
								/>
						</g>
						<g id="XMLID_852_">
							<path id="XMLID_930_" style="fill:#27DEBF;" d="M264.816,279.622c-0.477,0.168-0.925,0.44-1.304,0.757
								c-0.406,0.338-0.724,0.775-0.962,1.247c-0.36,0.717-0.698,1.158-1.209,1.519c-0.111,0.078-0.277,0.052-0.349-0.063
								c-0.575-0.921-0.302-2.303,0.711-3.264c0.96-0.911,2.265-1.146,3.157-0.641C265.04,279.278,265.01,279.554,264.816,279.622z"
								/>
						</g>
					</g>
				</g>
			</g>
		</g>
	</g>
</g>
<g id="Character">
	<g id="Character_8_">
		<g>
			<path id="XMLID_845_" style="fill:#E0E0E0;" d="M245.928,194.295l4.97-10.763c0,0,2.178-0.482,3.643,1.574l-4.754,10.655
				L245.928,194.295z"/>
			<path id="XMLID_596_" style="fill:#FFA8A7;" d="M214.031,224.323c0,0-2.966,4.866-3.882,10.187
				c-0.85,4.932,1.808,9.905,5.194,8.937c3.385-0.968,7.249-5.522,10.119-10.142c2.87-4.619,13.683-23.214,13.683-23.214
				s3.356,0.182,5.669-1.796c2.313-1.979,6.231-12.945,6.231-12.945s-2.501,0.075-5.348,0.286c1.069-1.724,0.791-3.298,0.242-3.445
				c-0.732-0.195-2.577,1.24-3.989,1.808c-2.357,0.949-5.257,1.029-5.799,1.444c-1.582,1.212-2.911,5.367-4.96,8.194
				C225.151,211.973,214.031,224.323,214.031,224.323z"/>
			<path style="fill:#27DEBF;" d="M183.499,207.104c4.219,1.088,7.958,4.466,12.343,8.124c4.385,3.657,15.506,11.726,15.506,11.726
				l7.943-8.592l10.524,8.592c0,0-4.982,8.943-9.6,14.072c-3.856,4.282-4.974,4.314-11.174,0.937
				c-5.498-2.994-23.509-13.043-23.509-13.043L183.499,207.104z"/>
			<path style="opacity:0.8;fill:#FFFFFF;" d="M183.499,207.104c4.219,1.088,7.958,4.466,12.343,8.124
				c4.385,3.657,15.506,11.726,15.506,11.726l7.943-8.592l10.524,8.592c0,0-4.982,8.943-9.6,14.072
				c-3.856,4.282-4.974,4.314-11.174,0.937c-5.498-2.994-23.509-13.043-23.509-13.043L183.499,207.104z"/>
			<path style="opacity:0.1;" d="M211.348,226.954c-2.745,3.364-3.842,6.719-3.842,6.719s-0.01-4.236,2.484-7.709L211.348,226.954z"
				/>
			<path id="XMLID_587_" style="fill:#F28F8F;" d="M239.144,210.091c0,0-2.079-1.154-2.676-3.041c0,0,3.035-0.194,3.831-3.084
				c0.796-2.89-0.129-3.823,1.983-5.043c2.112-1.22,3.494-3.078,3.494-3.078l4.998-0.238c0,0-1.616,6.554-2.536,8.866
				C247.319,206.785,244.854,210.332,239.144,210.091z"/>
			<path id="XMLID_452_" style="fill:#FFA8A7;" d="M246.311,193.778c0,0,3.155-0.652,4.916-0.122c0.763,0.23,1.252,0.683,0.991,2.2
				c-0.214,1.245-1.564,1.839-1.564,1.839s1.02,0.681,0.955,1.943c-0.05,0.96-0.684,1.97-2.031,2.5c0,0,0.728,0.844,0.297,1.783
				c-0.641,1.393-2.139,1.653-2.139,1.653s0.267,1.162-0.327,1.977c-0.594,0.815-2.962,1.801-4.972,2.103
				c-2.011,0.302-2.357-1.519-1.813-2.341c0.669-1.009,1.792-1.443,1.792-1.443s-0.8-0.718-0.615-1.747
				c0.185-1.03,2.389-1.731,2.389-1.731s-1.474-0.731-1.243-1.966c0.23-1.235,2.852-2.011,2.852-2.011s-0.942,0.113-1.4-1.077
				C245.539,196.049,246.361,194.751,246.311,193.778z"/>
		</g>
		<g id="XMLID_790_">
			<g id="Legs_1_">
				<path style="fill:#FFA8A7;" d="M136.96,395.517c0,0-2.352-23.865-0.257-37.693c1.798-11.865,3.784-16.775,4.16-19.473
					c0,0,3.313-30.893,3.877-54.627c0.268-11.257,0.858-17.128,9.474-30.007l3.244-3.747c0.509,4.378,4.701,4.254,10.644,5.197
					c5.724,0.909,12.951,0.094,21.649-2.41c1.381,11.334,2.55,35.854,3.669,59.308c0.547,11.466-0.088,21.059-0.243,28.404
					c-0.211,9.969-2.94,48.934-2.94,48.934l-0.063,1.644c-0.025,1.825,0.358,3.106,1.493,6.052
					c1.149,2.983,3.261,7.259,6.096,10.401c0.817,0.906,6.49,6.006,7.234,7.087c2.427,2.911-2.705,4.463-6.492,3.904
					c-3.996-0.588-10.195-2.194-11.924-4.656c-1.153-1.64-1.958-7.342-3.144-9.005c-3.997-5.608-5.638-8.018-5.644-9.793
					c-0.011-3.207,1.109-4.46,1.527-6.265c-0.277-3.786-7.002-23.846-6.994-34.865c0.004-5.251,1.598-14.49,1.598-14.49
					l-4.934-41.53c-1.992,10.677-5.959,37.752-7.347,45.41c-1.913,10.546-7.986,28.26-11.955,42.202
					c-1.491,5.237-2.215,7.574-2.68,11.012c-0.002,0.013-0.135,1.227-0.135,1.239c-0.107,1.564-1.016,18.263-1.683,21.78
					c-1.393,7.344-7.925,6.328-8.891,0.36c-0.823-5.079,0.506-20.75,0.557-22.674L136.96,395.517z"/>
				<path id="XMLID_964_" style="fill:#37474F;" d="M136.749,395.409c-1.847,0.007-0.729,7.169-1.268,11.759
					c-0.577,4.921-2.242,8.498-2.759,12.532c-0.591,4.609-0.205,6.548,1.398,10.366c1.247,2.969,7.662,7.102,10.174,2.914
					c2.543-4.238,3.111-9.001,2.891-13.602c-0.227-4.755-0.467-8.233-0.514-11.848c-0.042-3.186,2.512-10.634,0.127-11.124
					l-0.135,1.239c-0.882,1.705-9.094,2.78-10.018-0.534L136.749,395.409z"/>
				<g id="XMLID_787_">
					<g id="XMLID_848_">
						<path id="XMLID_961_" style="fill:#263238;" d="M177.142,398.805c-0.596,2.296-0.096,8.617-0.096,8.617
							s0.967,2.191,4.501,3.689l1.713-8.76L177.142,398.805z"/>
						<polygon id="XMLID_960_" points="181.546,411.111 189.414,408.646 191.394,401.72 182.535,406.055 						"/>
						<path id="XMLID_917_" style="fill:#37474F;" d="M189.966,390.941l0.063-1.644c1.056,0.531,3.282,9.131,6.368,15.051
							c2.818,5.405,8.506,8.473,10.333,10.833c2.446,3.157-2.445,7.118-10.184,5.353c-3.841-0.876-9.641-3.42-11.187-6.041
							c-1.546-2.621-2.017-7.403-3.284-9.332c-1.267-1.928-4.311-4.171-4.933-6.356c-0.342-1.2-0.593-3.857,0.098-6.005
							c0.635-1.971,1.198-4.359,1.871-4.133l0.025,1.506c0.506,1.066,2.363,2.325,6.28,2.59
							C187.278,392.889,189.089,392.628,189.966,390.941z"/>
					</g>
				</g>
			</g>
			<path style="fill:#455A64;" d="M191.136,254.341c0.962,6.461,1.402,15.44,2.353,32.561c0.958,17.244,1.566,34.962,1.286,44.208
				c-0.279,9.246-0.931,17.914-0.931,17.914s-9.422,7.378-27.727,7.39c-22.852,0.015-28.726-7.39-28.726-7.39l2.749-12.317
				c0,0,2.766-41.814,2.643-54.133s3.77-21.115,9.743-29.564L191.136,254.341z"/>
		</g>
		<g>
			<path id="XMLID_789_" style="fill:#27DEBF;" d="M163.188,206.234c0,0-6.563,0.281-6.562,0.284
				c1.944,11.543-6.867,21.94-6.867,21.94l3.63,18.278c-0.194,0.324,0.548,2.936-0.827,6.238c6.326,8.469,31.557,9.49,38.61,1.33
				c-0.383-3.397-1.639-7.709-1.639-7.709l1.362-8.962c9.708-10.132-0.135-23.776-7.497-30.511l-7.309-1.743L163.188,206.234z"/>
			<path id="XMLID_1327_" style="opacity:0.8;fill:#FFFFFF;" d="M163.188,206.234c0,0-6.563,0.281-6.562,0.284
				c1.944,11.543-6.867,21.94-6.867,21.94l3.63,18.278c-0.194,0.324,0.548,2.936-0.827,6.238c6.326,8.469,31.557,9.49,38.61,1.33
				c-0.383-3.397-1.639-7.709-1.639-7.709l1.362-8.962c9.708-10.132-0.135-23.776-7.497-30.511l-7.309-1.743L163.188,206.234z"/>
			<path style="fill:#27DEBF;" d="M180.552,222.486c-9.34-2.902-17.654-11.949-18.229-17.597l-8.905,2.469l-4.831,23.86
				c0,0,2.814,10.682,3.788,14.499c0.974,3.817-0.016,6.452-1.301,8.621c-2.539,4.289-4.126,6.952-5.892,11.155
				c0,0,3.714,3.161,13.674,5.295c8.454,1.811,17.108,0.655,17.108,0.655l3.138-12.098l1.801,11.207c0,0,7.289-0.586,12.644-4.505
				l-3.18-19.43l0.772-8.785c0,0,3.907-3.868,4.298-9.354c0.392-5.486-1.722-9.892-5.598-14.986c-3.877-5.094-6.34-6.387-6.34-6.387
				l-4.849-2.215C182.105,211.402,181.646,218.602,180.552,222.486z"/>
			<path style="opacity:0.2;" d="M180.552,222.486c-9.34-2.902-17.654-11.949-18.229-17.597l-8.905,2.469l-4.831,23.86
				c0,0,2.814,10.682,3.788,14.499c0.974,3.817-0.016,6.452-1.301,8.621c-2.539,4.289-4.126,6.952-5.892,11.155
				c0,0,3.714,3.161,13.674,5.295c8.454,1.811,17.108,0.655,17.108,0.655l3.138-12.098l1.801,11.207c0,0,7.289-0.586,12.644-4.505
				l-3.18-19.43l0.772-8.785c0,0,3.907-3.868,4.298-9.354c0.392-5.486-1.722-9.892-5.598-14.986c-3.877-5.094-6.34-6.387-6.34-6.387
				l-4.849-2.215C182.105,211.402,181.646,218.602,180.552,222.486z"/>
			<path style="fill:#27DEBF;" d="M175.964,213.263c0,0-8.795-1.94-12.546-7.266l-0.036-4.403c-2.199,0.364-2.701,3.786-2.701,3.786
				s-0.568,4.73,2.013,7.619s7.5,1.524,7.5,1.524s1.971,2.314,2.971,2.586C174.165,217.38,175.964,213.263,175.964,213.263z"/>
			<path style="opacity:0.65;fill:#FFFFFF;" d="M175.964,213.263c0,0-8.795-1.94-12.546-7.266l-0.036-4.403
				c-2.199,0.364-2.701,3.786-2.701,3.786s-0.568,4.73,2.013,7.619s7.5,1.524,7.5,1.524s1.971,2.314,2.971,2.586
				C174.165,217.38,175.964,213.263,175.964,213.263z"/>
			<path style="fill:#27DEBF;" d="M175.964,213.263c1.263-1.169,1.954-4.756,1.217-7.844c-0.009-0.235-0.004-2.601-0.004-2.601
				s0.636-0.136,1.415,0.583c0.397,0.367,2.535,2.367,2.535,2.367s1.232,1.802,1.103,4.363c-0.069,1.368-1.131,2.777-1.912,2.978
				c0,0,0.228,2.02-0.11,2.741C179.869,216.57,175.964,213.263,175.964,213.263z"/>
			<path style="opacity:0.65;fill:#FFFFFF;" d="M175.964,213.263c1.263-1.169,1.954-4.756,1.217-7.844
				c-0.009-0.235-0.004-2.601-0.004-2.601s0.636-0.136,1.415,0.583c0.397,0.367,2.535,2.367,2.535,2.367s1.232,1.802,1.103,4.363
				c-0.069,1.368-1.131,2.777-1.912,2.978c0,0,0.228,2.02-0.11,2.741C179.869,216.57,175.964,213.263,175.964,213.263z"/>
		</g>
		<g>
			<path style="fill:#263238;" d="M183.517,188.545c2.114-2.218,3.509-4.966,5.149-7.525c0.686-1.071,1.374-2.366,2.328-3.217
				c0.881-0.787,1.984-1.289,2.823-2.128c1.148-1.147,2.034-2.636,2.141-4.256c0.106-1.62-0.698-3.349-2.169-4.036
				c1.097-1.337,1.587-3.153,1.312-4.86c-0.533-3.313-3.735-5.562-7.04-4.786c0.981-2.198-0.208-4.949-2.251-6.221
				c-2.043-1.272-4.677-1.271-6.978-0.567c-2.259,0.691-4.275,1.988-6.263,3.265c-0.037,0.024-0.074,0.048-0.112,0.072
				c-5.049,3.242-10.804,4.241-15.334,8.473c-4.627,4.323-6.256,9.487-6.017,14.971c0.519,11.902,10.123,18.013,13.369,21.505
				c0.151,0.163,1.251,0.057,1.463,0.067c1.097,0.05,2.194,0.098,3.291,0.151c0.794,0.038,1.803,0.462,2.56,0.222
				c1.004-0.318,1.757-1.643,2.348-2.431C176.768,193.739,180.564,191.643,183.517,188.545z"/>
			<path style="fill:#263238;" d="M157.54,155.965c4.067,2.812,2.638,6.938-0.313,11.205c-2.951,4.267-6.307,7.061-10.374,4.248
				s-4.972-8.552-2.021-12.819C147.784,154.332,153.473,153.153,157.54,155.965z"/>
			<g id="XMLID_653_">
				<g id="XMLID_3746_">
					<g id="XMLID_784_">
						<path style="fill:#FFA8A7;" d="M191.361,184.6c-0.25,10.982-3.814,13.697-5.6,14.477c-1.786,0.78-5.234,0.304-8.58-0.25v6.591
							c0,0,1.921,4.831-1.217,7.844c-7.228-1.292-11.042-4.992-12.029-6.161c-0.359-0.426-0.553-0.96-0.553-1.516v-15.509
							c0,0-1.833,1.942-5.078-0.281c-3.237-2.215-3.518-6.349-1.537-8.689c1.412-1.662,5-1.779,6.724,0.803
							c0.967,1.895,1.1,3.799,2.184,3.011c2.894-2.083,1.342-6.817,4.836-9.157c0.008,0,0.008-0.008,0.016-0.008
							c1.045-0.562,2.231-1.092,3.557-1.552c6.232-2.153,11.63-3.963,12.933-8.221C189.474,167.44,191.665,171.644,191.361,184.6z"
							/>
					</g>
					<g id="XMLID_781_">
						<path id="XMLID_782_" style="fill:#263238;" d="M179.53,182.008c0.043,0.848-0.584,1.566-1.4,1.605
							c-0.816,0.038-1.512-0.617-1.554-1.464c-0.042-0.847,0.584-1.566,1.4-1.604C178.792,180.505,179.488,181.16,179.53,182.008z"
							/>
					</g>
					<g id="XMLID_775_">
						<path id="XMLID_776_" style="fill:#263238;" d="M189.928,181.522c0.04,0.799-0.551,1.476-1.32,1.512
							c-0.846,0.04-1.42-0.502-1.465-1.38c-0.04-0.799,0.551-1.476,1.32-1.512C189.231,180.105,189.887,180.723,189.928,181.522z"/>
					</g>
					<g id="XMLID_771_">
						<path id="XMLID_772_" style="fill:#F28F8F;" d="M177.177,198.826c-3.532-0.463-10.798-2.55-11.93-5.423
							c0,0,0.377,1.805,2.548,3.666c2.171,1.86,9.383,3.956,9.383,3.956V198.826z"/>
					</g>
					<path id="XMLID_750_" style="fill:#263238;" d="M178.053,176.106l-3.594,1.151c-0.295-1.025,0.271-2.114,1.263-2.432
						C176.715,174.507,177.758,175.081,178.053,176.106z"/>
					<path id="XMLID_742_" style="fill:#B16668;" d="M176.479,190.236l5.432,1.889c-0.58,1.519-1.901,2.332-3.599,1.848
						C176.784,193.538,175.898,191.755,176.479,190.236z"/>
					<path id="XMLID_731_" style="fill:#263238;" d="M190.569,176.434l-3.677-0.97c0.232-1.034,1.243-1.654,2.258-1.386
						C190.166,174.345,190.801,175.4,190.569,176.434z"/>
				</g>
			</g>
			<g id="XMLID_3732_">
				<path id="XMLID_3734_" style="fill:#F28F8F;" d="M183.188,180.558v8.869l4.862-1.506l-4.511-7.413
					C183.429,180.503,183.311,180.521,183.188,180.558z"/>
			</g>
		</g>
		<path style="fill:#F28F8F;" d="M176.974,191.525c-0.22,0-0.429,0.04-0.632,0.096c0.156,1.076,0.898,2.047,1.969,2.352
			c0.36,0.102,0.698,0.135,1.02,0.127c0.005-0.066,0.02-0.13,0.02-0.197C179.352,192.59,178.287,191.525,176.974,191.525z"/>
		<g id="Arm_7_">
			<path style="fill:#FFA8A7;" d="M139.779,258.718c0.82,1.437,2.267,3.318,2.49,3.595c0.827,1.025,1.876,1.88,2.994,2.032
				c3.059,0.414,4.669,0.89,7.339,1.729c2.091,0.656,3.412,0.485,3.482,1.022c0.089,0.691-0.28,1.488-2.178,1.889
				c-0.955,0.202-2.404,0.145-4.185,0.03c0,0,2.228,2.799,5.738,5.11c4.241,2.793,5.675,4.904,1.267,7.582
				c-3.225,1.96-8.832,1.438-16.585-5.798c-2.699-2.52-7.504-8.009-10.082-11.875L139.779,258.718z"/>
			<path style="fill:#27DEBF;" d="M130.456,265.12c-12.47-15.549-12.797-18.27-9.005-23.63
				c19.979-28.24,21.072-31.526,31.967-34.132c4.755,8.162,1.709,17.583-2.254,22.023l-16.886,17.99
				c2.086,4.429,6.165,12.416,6.165,12.416S136.206,263.83,130.456,265.12z"/>
			<path style="opacity:0.8;fill:#FFFFFF;" d="M130.456,265.12c-12.47-15.549-12.797-18.27-9.005-23.63
				c19.979-28.24,21.072-31.526,31.967-34.132c4.755,8.162,1.709,17.583-2.254,22.023l-16.886,17.99
				c2.086,4.429,6.165,12.416,6.165,12.416S136.206,263.83,130.456,265.12z"/>
			<path style="opacity:0.1;" d="M134.278,247.37c-2.231-3.536-5.688-4.891-5.688-4.891s4.301-0.303,6.812,3.693L134.278,247.37z"/>
		</g>
		<path style="opacity:0.2;" d="M177.463,238.533c-5.76,2.972-15.453,1.65-17.83-5.229c0,0-0.869,5.988,6.479,8.093
			C173.906,243.629,177.463,238.533,177.463,238.533z"/>
	</g>
</g>
<g id="Speech_Bubble">
	<g id="Speech_Bubble_11_">
		<g id="Speech_Bubble_14_">
			<path id="XMLID_1333_" style="fill:#27DEBF;" d="M364.599,208.554l-2.727-7.07l2.194-6.333v-3.877l-6.715,3.877v3.877
				l2.887,6.943c0.049,0.084,0.119,0.14,0.196,0.174l-0.002,0.003L364.599,208.554z"/>
			<path id="XMLID_1332_" style="opacity:0.2;" d="M364.599,208.554l-2.727-7.07l2.194-6.333v-3.877l-6.715,3.877v3.877l2.887,6.943
				c0.049,0.084,0.119,0.14,0.196,0.174l-0.002,0.003L364.599,208.554z"/>
			<path id="XMLID_1331_" style="fill:#27DEBF;" d="M376.65,166.79c0-1.284-0.901-2.845-2.013-3.487l-1.639-0.946
				c-1.112-0.642-2.914-0.642-4.026,0l-20.423,11.768c-1.112,0.642-2.013,2.203-2.013,3.487v23.659c0,1.284,0.902,2.845,2.013,3.487
				l1.639,0.947c1.112,0.642,2.915,0.642,4.026,0l7.354-4.235l2.881,6.933c0.184,0.319,0.658,0.274,0.779-0.074l3.045-10.732
				l6.365-3.66c1.112-0.642,2.013-2.203,2.013-3.487L376.65,166.79z"/>
			<path id="XMLID_1330_" style="opacity:0.2;" d="M346.535,201.271c0,1.284,0.902,2.845,2.013,3.487l1.639,0.946
				c1.005,0.58,2.569,0.631,3.682,0.162c-0.948,0.358-1.669-0.176-1.669-1.325l0-23.66c0-0.642,0.225-1.353,0.589-1.984
				l-5.665-3.271c-0.364,0.631-0.59,1.342-0.59,1.984V201.271z"/>
			<path id="XMLID_1329_" style="opacity:0.5;fill:#FFFFFF;" d="M376.585,166.218c-0.235-0.855-1.014-1.127-1.944-0.592
				l-20.428,11.771c-0.554,0.319-1.061,0.864-1.418,1.503l-5.663-3.268c0.366-0.639,0.864-1.183,1.418-1.503l20.418-11.771
				c1.118-0.639,2.921-0.639,4.029,0l1.644,0.949C375.589,163.851,376.387,165.072,376.585,166.218z"/>
		</g>
		<g>
			<g id="XMLID_8437_">
				<g id="XMLID_1338_">
					<path style="fill:#FAFAFA;" d="M360.704,196.319c-0.388,0-0.757-0.052-1.1-0.159c-1.294-0.403-2.029-1.55-2.018-3.146v-2.683
						c0-0.207,0.168-0.375,0.375-0.375c0.207,0,0.375,0.168,0.375,0.375v2.685c-0.005,0.733,0.182,2.02,1.49,2.428
						c2.193,0.679,5.802-1.447,8.053-4.746c1.087-1.592,1.687-3.211,1.689-4.559v-2.736c0-0.207,0.168-0.375,0.375-0.375
						s0.375,0.168,0.375,0.375v2.723c-0.003,1.511-0.649,3.28-1.82,4.995C366.371,194.242,363.164,196.319,360.704,196.319z"/>
				</g>
			</g>
			<g id="XMLID_8434_">
				<path style="fill:#FAFAFA;" d="M363.993,192.561c-0.037,0-0.075-0.005-0.111-0.017l-8.986-2.799
					c-0.113-0.035-0.204-0.122-0.243-0.234c-0.039-0.112-0.022-0.237,0.045-0.335l8.986-13.177c0.093-0.136,0.264-0.197,0.421-0.146
					l8.986,2.8c0.113,0.035,0.204,0.123,0.243,0.234c0.039,0.112,0.022,0.237-0.045,0.335l-8.986,13.176
					C364.231,192.501,364.115,192.561,363.993,192.561z M355.602,189.179l8.237,2.566l8.544-12.528l-8.237-2.567L355.602,189.179z"
					/>
			</g>
			<g id="XMLID_8302_">
				<g id="XMLID_1343_">
					<g>
						<path style="fill:#FAFAFA;" d="M372.506,189.385c-0.213,0-0.395-0.075-0.527-0.216c-0.132-0.142-0.199-0.335-0.199-0.572
							l0.531-2.547c0.024-0.113,0.1-0.209,0.203-0.26c0.077-0.038,0.167-0.048,0.249-0.028c0.066-0.026,0.183-0.111,0.23-0.191
							c0.076-0.131,0.227-0.204,0.374-0.184c0.15,0.02,0.273,0.129,0.313,0.275l0.499,1.879c0.009,0.031,0.013,0.063,0.013,0.096
							C374.191,188.521,373.226,189.385,372.506,189.385z M372.988,186.477l-0.466,2.198c0.013-0.031,0.206-0.067,0.455-0.267
							c0.266-0.213,0.442-0.494,0.462-0.728l-0.332-1.252C373.068,186.447,373.028,186.463,372.988,186.477z"/>
					</g>
				</g>
				<g id="XMLID_1334_">
					<g>
						<path style="fill:#FAFAFA;" d="M372.828,185.581c-0.104,0-0.206-0.027-0.299-0.08c-0.233-0.135-0.367-0.417-0.367-0.774
							c0-0.517,0.273-1.065,0.637-1.274c0.213-0.124,0.447-0.131,0.643-0.018c0.233,0.135,0.367,0.417,0.367,0.774
							c0,0.517-0.273,1.065-0.636,1.275C373.061,185.548,372.943,185.581,372.828,185.581z M372.937,184.879h0.009H372.937z
							 M373.059,184.229c-0.076,0.118-0.143,0.296-0.147,0.478C372.987,184.589,373.054,184.412,373.059,184.229z"/>
					</g>
				</g>
			</g>
			<g>
				<path style="fill:#FAFAFA;" d="M363.903,184.128c-0.135,0-0.266-0.073-0.332-0.201c-0.097-0.184-0.025-0.41,0.158-0.506
					l9.076-4.744c0.116-0.061,0.256-0.057,0.368,0.012c0.112,0.068,0.181,0.189,0.181,0.321v4.601c0,0.207-0.168,0.375-0.375,0.375
					c-0.207,0-0.375-0.168-0.375-0.375v-3.982l-8.527,4.458C364.021,184.115,363.961,184.128,363.903,184.128z"/>
			</g>
		</g>
	</g>
</g>
</svg>
